<svg width="187" height="45" viewBox="0 0 187 45" fill="none" xmlns="http://www.w3.org/2000/svg">
<path d="M54.7507 8.05225H59.5663V30.8601H72.2941V35.0718H54.7507V8.05225Z" fill="black"/>
<path d="M74.1666 29.5751C74.1666 25.8125 76.9847 24.1557 80.7938 23.366L86.2441 22.2357V21.895C86.2441 20.006 85.2686 18.8447 82.8531 18.8447C80.7008 18.8447 79.586 19.8202 79.0441 21.7402L74.786 20.7647C75.7615 17.4976 78.657 14.9272 83.0234 14.9272C87.7615 14.9272 90.6261 17.1879 90.6261 21.7402V30.2409C90.6261 31.3712 91.1216 31.7119 92.3603 31.557V35.0564C89.0932 35.428 87.359 34.7932 86.6777 33.1674C85.4389 34.5609 83.3641 35.3816 80.8092 35.3816C77.0466 35.3816 74.1511 33.09 74.1511 29.5441L74.1666 29.5751ZM86.2441 25.7041L81.986 26.6022C80.066 27.0202 78.6415 27.6241 78.6415 29.3893C78.6415 30.9377 79.7718 31.8048 81.506 31.8048C83.9215 31.8048 86.2441 30.5196 86.2441 28.1196V25.7041Z" fill="black"/>
<path d="M100.102 32.9969V35.0718H95.5807V8.05225H100.102V17.4201C101.341 15.9491 103.23 14.9426 105.785 14.9426C111.312 14.9426 114.471 19.6033 114.471 25.224C114.471 30.8447 111.312 35.5053 105.785 35.5053C103.23 35.5053 101.341 34.4834 100.102 33.0279V32.9969ZM99.9936 25.8124C99.9936 29.4666 102.099 31.526 104.887 31.526C108.154 31.526 109.934 28.9711 109.934 25.2085C109.934 21.4459 108.169 18.891 104.887 18.891C102.099 18.891 99.9936 20.9194 99.9936 24.6511V25.8124Z" fill="black"/>
<path d="M116.732 25.2086C116.732 19.4176 120.65 14.9272 126.147 14.9272C131.643 14.9272 134.911 19.2628 134.911 24.6822V26.1841H121.052C121.393 29.5751 123.421 31.6345 126.317 31.6345C128.531 31.6345 130.312 30.5041 130.916 28.4757L134.787 29.9467C133.393 33.4151 130.265 35.4745 126.317 35.4745C120.665 35.4745 116.717 31.2938 116.717 25.1931L116.732 25.2086ZM121.285 22.7931H130.358C130.327 20.6099 128.965 18.7363 126.1 18.7363C123.762 18.7363 121.966 20.1299 121.285 22.7931Z" fill="black"/>
<path d="M142.825 35.0718H138.304V8.05225H142.825V35.0718Z" fill="black"/>
<path d="M169.023 8.05225L179.258 35.0718H174.396L172.058 28.8937H160.383L158.091 35.0718H153.307L163.542 8.05225H168.992H169.023ZM161.978 24.682H170.479L166.19 13.3942L161.978 24.682Z" fill="black"/>
<path d="M187.001 35.0718H182.185V8.05225H187.001V35.0718Z" fill="black"/>
<path d="M22.4827 44.9655C34.8996 44.9655 44.9655 34.8996 44.9655 22.4827C44.9655 10.0659 34.8996 0 22.4827 0C10.0659 0 0 10.0659 0 22.4827C0 34.8996 10.0659 44.9655 22.4827 44.9655Z" fill="black"/>
<path opacity="0.95" d="M16.1973 37.4246C10.9792 34.5755 7.43335 29.0323 7.43335 22.6683C7.43335 16.3044 10.9637 10.7612 16.1818 7.91211C12.7753 11.876 10.7005 17.0322 10.7005 22.6683C10.7005 28.3045 12.7753 33.4762 16.1973 37.4246Z" fill="white"/>
<path opacity="0.8" d="M35.8605 26.7868C36.7755 26.7868 37.5173 24.8596 37.5173 22.4823C37.5173 20.1049 36.7755 18.1777 35.8605 18.1777C34.9455 18.1777 34.2037 20.1049 34.2037 22.4823C34.2037 24.8596 34.9455 26.7868 35.8605 26.7868Z" fill="white"/>
<g opacity="0.85">
<path d="M28.5995 7.88135C27.4382 7.88135 26.3852 8.96523 25.5336 10.8078C25.3788 11.1485 25.224 11.5046 25.0846 11.8917C24.0936 14.5549 23.4897 18.3175 23.4897 22.4982C23.4897 26.6789 24.1091 30.4415 25.0846 33.1047C25.224 33.4918 25.3788 33.848 25.5336 34.1886C26.3852 36.0312 27.4536 37.1151 28.5995 37.1151C31.433 37.1151 33.7247 30.5809 33.7247 22.4982C33.7247 14.4156 31.433 7.88135 28.5995 7.88135ZM30.0395 30.968C28.3982 30.968 27.0665 27.1744 27.0665 22.4982C27.0665 17.8221 28.3982 14.0285 30.0395 14.0285C31.6808 14.0285 33.0124 17.8221 33.0124 22.4982C33.0124 27.1744 31.6808 30.968 30.0395 30.968Z" fill="white"/>
</g>
<path opacity="0.9" d="M24.6979 33.647C24.8837 34.0961 25.0695 34.5296 25.2863 34.9167C24.3263 37.5955 23.0411 39.2213 21.6475 39.2213C18.6436 39.2213 16.2126 31.727 16.2126 22.4986C16.2126 13.2701 18.6436 5.77588 21.6475 5.77588C23.0566 5.77588 24.3263 7.4017 25.2863 10.0804C25.0695 10.4675 24.8837 10.8856 24.6979 11.3501C24.2953 10.8546 23.8462 10.5759 23.3817 10.5759C21.3378 10.5759 19.6811 15.9179 19.6811 22.5141C19.6811 29.1102 21.3378 34.4522 23.3817 34.4522C23.8462 34.4522 24.2798 34.1735 24.6979 33.678V33.647Z" fill="white"/>
</svg>
