<svg width="45" height="45" viewBox="0 0 45 45" fill="none" xmlns="http://www.w3.org/2000/svg">
<path d="M22.4827 44.9655C34.8996 44.9655 44.9655 34.8996 44.9655 22.4827C44.9655 10.0659 34.8996 0 22.4827 0C10.0659 0 0 10.0659 0 22.4827C0 34.8996 10.0659 44.9655 22.4827 44.9655Z" fill="white"/>
<path opacity="0.95" d="M16.1973 37.4246C10.9792 34.5755 7.43335 29.0323 7.43335 22.6683C7.43335 16.3044 10.9637 10.7612 16.1818 7.91211C12.7753 11.876 10.7005 17.0322 10.7005 22.6683C10.7005 28.3045 12.7753 33.4762 16.1973 37.4246Z" fill="#262626"/>
<path opacity="0.8" d="M35.8605 26.7868C36.7755 26.7868 37.5173 24.8596 37.5173 22.4823C37.5173 20.1049 36.7755 18.1777 35.8605 18.1777C34.9455 18.1777 34.2037 20.1049 34.2037 22.4823C34.2037 24.8596 34.9455 26.7868 35.8605 26.7868Z" fill="#262626"/>
<g opacity="0.85">
<path d="M28.5995 7.88135C27.4382 7.88135 26.3852 8.96523 25.5336 10.8078C25.3788 11.1485 25.224 11.5046 25.0846 11.8917C24.0936 14.5549 23.4897 18.3175 23.4897 22.4982C23.4897 26.6789 24.1091 30.4415 25.0846 33.1047C25.224 33.4918 25.3788 33.848 25.5336 34.1886C26.3852 36.0312 27.4536 37.1151 28.5995 37.1151C31.433 37.1151 33.7247 30.5809 33.7247 22.4982C33.7247 14.4156 31.433 7.88135 28.5995 7.88135ZM30.0395 30.968C28.3982 30.968 27.0665 27.1744 27.0665 22.4982C27.0665 17.8221 28.3982 14.0285 30.0395 14.0285C31.6808 14.0285 33.0124 17.8221 33.0124 22.4982C33.0124 27.1744 31.6808 30.968 30.0395 30.968Z" fill="#262626"/>
</g>
<path opacity="0.9" d="M24.6979 33.647C24.8837 34.0961 25.0695 34.5296 25.2863 34.9167C24.3263 37.5955 23.0411 39.2213 21.6475 39.2213C18.6436 39.2213 16.2126 31.727 16.2126 22.4986C16.2126 13.2701 18.6436 5.77588 21.6475 5.77588C23.0566 5.77588 24.3263 7.4017 25.2863 10.0804C25.0695 10.4675 24.8837 10.8856 24.6979 11.3501C24.2953 10.8546 23.8462 10.5759 23.3817 10.5759C21.3378 10.5759 19.6811 15.9179 19.6811 22.5141C19.6811 29.1102 21.3378 34.4522 23.3817 34.4522C23.8462 34.4522 24.2798 34.1735 24.6979 33.678V33.647Z" fill="#262626"/>
</svg>
