<svg width="263" height="168" viewBox="0 0 263 168" fill="none" xmlns="http://www.w3.org/2000/svg">
<path d="M115.079 77.5152H111.614L105.515 98.7973H112.273L117.427 80.8289C117.713 80.0576 117.598 79.1721 117.112 78.4865C116.654 77.858 115.88 77.4866 115.079 77.5152Z" fill="white"/>
<path d="M119.803 72.7454C119.202 74.6593 117.455 76.002 115.451 76.1162C114.076 76.1734 112.931 75.145 112.874 73.7738C112.845 73.431 112.902 73.0596 113.046 72.7454C113.647 70.8314 115.394 69.4888 117.398 69.3745C118.228 69.3174 119.03 69.7173 119.545 70.4029C119.775 70.7457 119.946 71.1457 119.975 71.5456C120.004 71.9455 119.946 72.3455 119.803 72.7454Z" fill="white"/>
<path d="M147.435 76.3734C146.089 76.3734 144.772 76.6305 143.54 77.1161C142.939 77.3732 142.395 77.716 141.851 78.0873L143.397 72.6597C143.655 71.8884 143.569 71.0028 143.082 70.3458C142.853 70.0316 142.538 69.7745 142.195 69.6031C141.851 69.4317 141.45 69.346 141.049 69.3746H137.728L129.31 98.7981H135.895L139.131 87.4857C139.475 86.0003 140.219 84.6576 141.278 83.5721C142.08 82.7437 143.197 82.2581 144.342 82.2866C145.259 82.2009 146.146 82.7151 146.518 83.5721C146.919 84.8576 146.862 86.2288 146.404 87.4857L143.197 98.7695H149.869L153.047 87.7143C154.02 85.0576 153.992 82.1438 152.961 79.5442C151.93 77.4589 149.754 76.2305 147.435 76.3734Z" fill="white"/>
<path d="M207.479 76.3163C204.358 76.2592 201.295 77.1448 198.689 78.8588C197.544 77.1448 195.596 76.2021 193.535 76.3449C192.189 76.3449 190.872 76.602 189.641 77.0876C188.925 77.4019 188.238 77.8304 187.608 78.316C187.436 77.1162 186.348 76.2592 185.145 76.3449H181.852L175.438 98.7696H182.024L185.288 87.4287C185.632 85.9433 186.376 84.6006 187.436 83.5151C187.837 83.1152 188.295 82.7724 188.839 82.5439C189.354 82.3153 189.927 82.2011 190.5 82.2296C190.958 82.1725 191.416 82.2868 191.788 82.5153C192.16 82.7438 192.475 83.1152 192.647 83.5151C193.048 84.8006 192.991 86.1718 192.533 87.4287L189.297 98.7696H195.969L199.233 87.4287C199.577 85.9718 200.321 84.6006 201.38 83.5151C202.182 82.6867 203.299 82.2011 204.444 82.2296C205.389 82.1439 206.248 82.6581 206.62 83.5151C207.021 84.8006 206.964 86.1718 206.506 87.4287L203.242 98.7696H209.913L213.092 87.6573C214.065 85.0006 214.037 82.0868 213.006 79.4872C212.004 77.4019 209.799 76.1449 207.479 76.3163Z" fill="white"/>
<path d="M154.937 89.1142L158.602 76.3164H165.273L161.608 89.1142C160.52 92.885 164.071 92.885 164.071 92.885C166.333 92.8564 168.28 91.3138 168.853 89.1142L172.518 76.3164H179.103L175.438 89.1142C173.806 94.9418 168.423 98.9125 162.381 98.7697C162.381 98.7697 151.987 99.4553 154.937 89.1142Z" fill="white"/>
<path d="M235.769 87.6845C236.743 85.0278 236.714 82.114 235.684 79.5145C234.653 77.4291 232.477 76.2007 230.186 76.3721C228.84 76.3436 227.523 76.6007 226.292 77.1149C225.69 77.372 225.146 77.6862 224.602 78.0861L226.149 72.6871C226.406 71.9158 226.32 71.0588 225.834 70.3732C225.604 70.0589 225.29 69.8018 224.917 69.6304C224.574 69.459 224.173 69.3733 223.772 69.4019H220.479L214.895 88.9414C211.832 99.6253 222.655 98.8254 222.655 98.8254C222.655 98.8254 232.534 98.9968 235.769 87.6845ZM229.155 87.456C228.783 88.9985 228.038 90.4269 226.95 91.5981C226.549 92.0266 226.091 92.3408 225.547 92.5694C225.032 92.7979 224.459 92.9122 223.886 92.8836C222.942 92.9979 222.025 92.4551 221.653 91.5695C221.281 90.1983 221.395 88.7414 221.911 87.4274C222.254 85.9419 222.999 84.5993 224.058 83.5138C224.86 82.6853 225.977 82.1997 227.122 82.2283C228.038 82.1426 228.926 82.6568 229.298 83.5138C229.67 84.8278 229.642 86.199 229.155 87.456Z" fill="white"/>
<path d="M129.653 72.659C129.796 72.2876 129.825 71.8591 129.768 71.4592C129.71 71.0593 129.567 70.6593 129.338 70.3165C128.88 69.6881 128.136 69.3167 127.362 69.3453H123.926L116.825 94.1982C115.852 97.6262 117.541 98.4832 119.145 98.626C120.29 98.7117 121.636 98.7688 122.953 98.7688C123.812 98.7688 124.642 98.7403 125.329 98.7117L126.017 98.6831L127.534 93.3698H124.556C123.755 93.3698 123.841 93.0841 123.898 92.7984L126.962 82.0574H127.792C128.737 82.0288 129.624 81.7146 130.369 81.1433C131.171 80.5719 131.743 79.7149 132.03 78.7722L132.545 77.0011H128.422L129.653 72.659Z" fill="white"/>
<path d="M106.345 87.6845C107.319 85.0278 107.29 82.114 106.259 79.5145C105.229 77.4577 103.052 76.2007 100.762 76.3721C99.416 76.3436 98.0989 76.6007 96.8676 77.1149C96.2663 77.372 95.7223 77.6862 95.1782 78.0861L96.7244 72.6871C96.9821 71.9158 96.8963 71.0588 96.4095 70.3732C96.1804 70.0589 95.8654 69.8018 95.5218 69.6304C95.1782 69.459 94.7774 69.3733 94.3765 69.4019H91.055L85.4714 88.9414C82.4076 99.6253 93.2311 98.8254 93.2311 98.8254C93.2311 98.8254 103.081 98.9968 106.345 87.6845ZM99.731 87.456C99.3587 88.9985 98.6143 90.4269 97.5262 91.5981C96.7244 92.4265 95.6077 92.9122 94.4624 92.8836C93.5175 92.9979 92.6012 92.4551 92.2003 91.5695C91.8281 90.1983 91.9426 88.7414 92.458 87.4274C92.8016 85.9419 93.5461 84.5993 94.6056 83.5138C95.4073 82.6853 96.524 82.1997 97.6694 82.2283C98.5856 82.1426 99.4733 82.6568 99.8455 83.5138C100.246 84.8278 100.218 86.199 99.731 87.456Z" fill="white"/>
<path d="M26.8869 78.0869C25.8561 80.4579 26.9728 83.2289 29.3494 84.2287C30.008 84.5144 30.7238 84.6286 31.4683 84.6001H33.1291L37.8536 68.1172H29.7789L26.8869 78.0869Z" fill="#DFDFDF"/>
<path d="M71.4982 74.4875C69.322 70.1453 65.5138 68.06 60.1306 68.06H50.1089L45.413 84.6286H52.5427C53.6881 84.4572 54.8048 85.0571 55.2629 86.114C55.7783 87.7138 55.7211 89.4563 55.1198 91.0561C54.6616 92.9986 53.7167 94.7983 52.3709 96.2837C51.3687 97.3407 49.9943 97.9406 48.534 97.912C47.3314 98.0549 46.1861 97.3693 45.7279 96.2552C45.2698 94.5412 45.3843 92.7129 46.0429 91.0561L54.7762 60.3185C55.3488 58.6902 55.1198 56.919 54.1462 55.4907C53.1727 54.1481 51.5692 53.4054 49.9084 53.4911H40.2016L28.6909 93.9699C22.3915 116.109 44.6971 114.481 44.6971 114.481C44.6971 114.481 64.9984 114.938 71.6986 91.456C73.6457 84.5429 73.5885 78.8296 71.4982 74.4875Z" fill="white"/>
<path d="M71.6987 91.3711C73.6744 84.5151 73.6171 78.8304 71.4982 74.5168C69.3221 70.2033 65.5138 68.1465 60.1307 68.1465H52.5714L47.8755 84.6294H52.5141C53.6595 84.458 54.7762 85.0579 55.2343 86.0863C55.7497 87.686 55.6925 89.4 55.0912 90.9712" fill="url(#paint0_linear_296_444)"/>
<defs>
<linearGradient id="paint0_linear_296_444" x1="62.9681" y1="84.7844" x2="57.4006" y2="75.7885" gradientUnits="userSpaceOnUse">
<stop stop-color="white" stop-opacity="0"/>
<stop offset="1" stop-color="#E4E4E4"/>
</linearGradient>
</defs>
</svg>
