<svg width="303" height="256" viewBox="0 0 303 256" fill="none" xmlns="http://www.w3.org/2000/svg">
<path d="M204.432 112.943C213.401 112.943 220.697 120.239 220.697 129.209C220.697 138.178 213.401 145.474 204.432 145.474C195.463 145.474 188.167 138.178 188.167 129.209C188.213 120.239 195.463 112.99 204.432 112.943ZM119.899 112.943C128.868 112.943 136.164 120.239 136.164 129.209C136.164 138.178 128.868 145.474 119.899 145.474C110.93 145.474 103.634 138.178 103.634 129.209C103.68 120.239 110.93 112.99 119.899 112.943ZM87.74 112.757C92.8984 112.618 97.8245 114.988 100.892 119.124L101.17 119.542L97.2203 123.492C95.2685 120.239 91.7366 118.288 87.9258 118.288C82.1168 118.241 77.4231 122.935 77.3766 128.744C77.3766 128.837 77.3766 128.93 77.3766 129.023C77.1907 134.739 81.6986 139.572 87.4147 139.758C87.6005 139.758 87.74 139.758 87.9258 139.758C91.5042 139.711 94.8967 137.992 96.988 135.064L97.2203 134.739L101.17 138.503C98.1033 142.825 93.0843 145.381 87.7864 145.288C78.7708 145.288 71.4746 138.038 71.3352 129.023C71.3817 120.054 78.7243 112.804 87.74 112.757ZM275.395 112.943C284.365 112.897 291.614 120.146 291.661 129.116C291.661 129.162 291.661 129.209 291.661 129.209C291.661 130.277 291.521 131.532 291.661 131.718L265.45 131.532V131.718C266.333 136.598 270.655 140.083 275.628 139.944C279.439 139.944 283.11 138.317 285.619 135.482L285.759 135.343L289.523 139.107C285.945 143.15 280.786 145.427 275.395 145.381C266.473 145.288 259.223 138.038 259.13 129.116C259.13 120.239 266.333 113.036 275.21 113.036C275.256 113.036 275.349 113.036 275.395 113.036V112.943ZM147.085 114.012V144.405H141.369V114.012H147.085ZM169.95 112.943C177.478 112.943 182.962 118.102 183.194 127.768V144.405H177.478V128.326C177.478 121.355 174.272 118.334 169.253 118.334C164.234 118.334 160.33 122.238 160.144 128.093V144.173H154.428V113.873H160.144V117.823C162.468 114.756 166.092 112.943 169.95 112.943ZM241.099 112.943C248.627 112.943 254.111 118.102 254.343 127.768V144.405H248.627V128.326C248.627 121.355 245.421 118.334 240.402 118.334C235.383 118.334 231.479 122.238 231.293 128.093V144.173H225.577V113.873H231.293V117.823C233.617 114.756 237.242 112.943 241.099 112.943ZM204.432 118.334C198.53 118.427 193.79 123.307 193.883 129.255C193.883 135.064 198.623 139.804 204.432 139.804C210.241 139.804 214.981 135.064 214.981 129.255C215.074 123.307 210.381 118.427 204.432 118.334ZM119.899 118.334C113.997 118.427 109.257 123.307 109.35 129.255C109.257 135.157 113.95 140.037 119.899 140.176C125.801 139.99 130.448 135.157 130.448 129.255C130.541 123.307 125.801 118.427 119.899 118.334ZM275.395 118.148C270.423 118.055 266.101 121.541 265.079 126.42V126.746H285.805C285.062 121.587 280.554 117.916 275.395 118.148ZM144.204 103.463C146.063 103.556 147.503 105.043 147.596 106.855C147.596 108.714 146.063 110.248 144.204 110.248C142.345 110.248 140.811 108.714 140.811 106.855C140.811 104.996 142.345 103.463 144.204 103.463Z" fill="white"/>
<mask id="mask0_296_494" style="mask-type:luminance" maskUnits="userSpaceOnUse" x="12" y="104" width="48" height="49">
<path d="M53.4432 128.326C53.4432 128.326 50.3761 132.973 47.913 135.901C44.8923 139.479 41.6393 141.71 36.7597 141.71C29.5564 141.756 23.6544 135.947 23.608 128.698C23.608 128.558 23.608 128.419 23.608 128.279C23.4221 121.076 29.1382 115.081 36.3414 114.895C36.4808 114.895 36.6202 114.895 36.8061 114.895C41.7322 114.895 44.9388 117.08 47.9595 120.704C50.3761 123.679 53.4432 128.326 53.4432 128.326L59.3452 120.193C54.8374 107.739 41.0816 101.325 28.6735 105.787C16.2653 110.248 9.80566 124.05 14.267 136.459C18.7748 148.913 32.5307 155.326 44.9388 150.865C51.6308 148.448 56.9287 143.151 59.3452 136.459L53.4432 128.326Z" fill="white"/>
</mask>
<g mask="url(#mask0_296_494)">
<rect x="11.761" y="103.299" width="50.0452" height="50.0452" fill="white"/>
</g>
</svg>
