<svg width="217" height="50" viewBox="0 0 217 50" fill="none" xmlns="http://www.w3.org/2000/svg">
<g clip-path="url(#clip0_296_394)">
<mask id="mask0_296_394" style="mask-type:luminance" maskUnits="userSpaceOnUse" x="0" y="0" width="217" height="50">
<path d="M0 0H217V50H0V0Z" fill="white"/>
</mask>
<g mask="url(#mask0_296_394)">
<path fill-rule="evenodd" clip-rule="evenodd" d="M179.647 14.8585H185.81V8.65625H179.647V14.8585ZM146.891 25.1873C148.069 22.0447 151.084 19.8071 154.62 19.8071C158.156 19.8071 161.171 22.0447 162.349 25.1873H146.891ZM154.62 14.0406C146.895 14.0406 140.631 20.3439 140.631 28.1198C140.631 35.8957 146.895 42.1981 154.62 42.1981C159.921 42.1981 164.533 39.2318 166.906 34.8594L161.737 32.3356C160.301 34.7863 157.652 36.4315 154.62 36.4315C150.789 36.4315 147.569 33.807 146.635 30.2474H162.605C162.604 30.25 162.603 30.2536 162.603 30.2567H168.451C168.557 29.5596 168.612 28.846 168.612 28.1198C168.612 20.3439 162.347 14.0406 154.62 14.0406ZM170.236 41.4475H176.399V35.2453H170.236V41.4475ZM179.647 41.4475H185.81V17.5851H179.647V41.4475ZM203.011 36.4315C198.449 36.4315 194.752 32.71 194.752 28.1198C194.752 23.5286 198.449 19.8071 203.011 19.8071C207.572 19.8071 211.27 23.5286 211.27 28.1198C211.27 32.71 207.572 36.4315 203.011 36.4315ZM203.008 14.0406C195.283 14.0406 189.019 20.3439 189.019 28.1198C189.019 35.8957 195.283 42.1981 203.008 42.1981C210.736 42.1981 217 35.8957 217 28.1198C217 20.3439 210.736 14.0406 203.008 14.0406ZM74.1603 22.93V29.3428H82.7772C82.3273 31.1753 81.4378 32.8174 80.1622 34.1291C78.2384 36.1078 75.5708 37.1981 72.6503 37.1981C66.5901 37.1981 61.6591 32.236 61.6591 26.1364C61.6591 20.0369 66.5901 15.0743 72.6503 15.0743C75.8966 15.0743 78.8805 16.4726 80.9492 18.8844L85.8828 14.8274C82.6118 10.9695 77.7586 8.66092 72.6503 8.66092C63.0763 8.66092 55.2871 16.5006 55.2871 26.1364C55.2871 35.7723 63.0763 43.6114 72.6503 43.6114C77.2989 43.6114 81.5841 41.9258 84.717 38.7038C87.3459 35.9994 89.0884 32.2272 89.4233 28.4481C89.5867 26.6048 89.6017 24.7739 89.5053 22.93H74.1603ZM105.55 36.433C100.989 36.433 97.2904 32.7106 97.2904 28.1198C97.2904 23.528 100.989 19.8066 105.55 19.8066C110.112 19.8066 113.81 23.528 113.81 28.1198C113.81 32.7106 110.112 36.433 105.55 36.433ZM113.811 16.7843C111.496 15.0758 108.641 14.0644 105.55 14.0644C97.8253 14.0644 91.5631 20.3673 91.5631 28.1416C91.5631 35.917 97.8253 42.2188 105.55 42.2188C108.641 42.2188 111.496 41.2079 113.811 39.4994V41.4475H119.538V14.8362H113.811V16.7843ZM131.83 8.65677H126.103V14.8585H122.671V20.2978H126.103V34.5321C126.103 36.002 126.287 37.2385 126.651 38.209C127.009 39.169 127.558 39.9206 128.21 40.5077C128.87 41.1037 129.646 41.5679 130.564 41.8314C131.498 42.0959 132.528 42.1981 133.617 42.1981C134.745 42.1981 135.749 42.0803 136.607 41.8474C137.403 41.6322 138.167 41.3277 138.877 40.9408V36.558C137.747 37.0497 136.691 37.2276 135.486 37.2842C134.214 37.3443 133.462 36.9787 132.836 36.3781C132.18 35.7489 131.83 34.9289 131.83 33.5534V20.2978H138.877V14.8585H131.83V8.65677Z" fill="white"/>
</g>
<mask id="mask1_296_394" style="mask-type:luminance" maskUnits="userSpaceOnUse" x="0" y="0" width="217" height="50">
<path d="M0 0H217V50H0V0Z" fill="white"/>
</mask>
<g mask="url(#mask1_296_394)">
<path fill-rule="evenodd" clip-rule="evenodd" d="M24.8411 38.7503C17.2956 38.7503 11.1788 32.5947 11.1788 25.0004C11.1788 17.4065 17.2956 11.2499 24.8411 11.2499V0C11.1216 0 0 11.1929 0 25.0004C0 38.8073 11.1216 50.0002 24.8411 50.0002C38.5601 50.0002 49.6822 38.8073 49.6822 25.0004H38.5034C38.5034 32.5947 32.3866 38.7503 24.8411 38.7503Z" fill="white"/>
</g>
<mask id="mask2_296_394" style="mask-type:luminance" maskUnits="userSpaceOnUse" x="0" y="0" width="217" height="50">
<path d="M0 0H217V50H0V0Z" fill="white"/>
</mask>
<g mask="url(#mask2_296_394)">
<path fill-rule="evenodd" clip-rule="evenodd" d="M24.8411 24.9999H38.5034V11.25H24.8411V24.9999Z" fill="white"/>
</g>
</g>
<defs>
<clipPath id="clip0_296_394">
<rect width="217" height="50" fill="white"/>
</clipPath>
</defs>
</svg>
