<svg width="175" height="174" viewBox="0 0 175 174" fill="none" xmlns="http://www.w3.org/2000/svg">
<g clip-path="url(#clip0_296_411)">
<path d="M29.3426 74.1199C29.5431 64.2406 23.9493 55.6324 21.0334 53.5628C21.0198 53.5492 20.7616 53.4098 20.7819 53.7972C20.7819 53.804 20.7752 53.804 20.7752 53.8108C20.4761 72.4717 10.8823 77.5013 5.67589 84.3424C-5.89918 99.5504 3.75918 116.903 16.2722 120.189C16.4863 120.243 17.0641 120.417 18.1618 120.641C18.7327 120.76 18.8992 120.274 18.4812 119.55C16.9859 116.95 14.3249 112.556 13.7982 106.915C12.5985 93.8139 29.1081 85.6168 29.3426 74.1199Z" fill="#EBEBEB"/>
<path d="M35.6501 80.4484C35.5515 80.3737 35.4122 80.3804 35.3986 80.5096C35.1335 82.8851 32.6765 87.8094 29.4445 92.4109C18.5627 107.932 24.0444 114.973 28.2993 119.857C29.0843 120.761 29.4751 120.564 29.8897 119.918C30.2772 119.306 30.8617 118.528 33.3765 117.335C33.7673 117.148 43.2694 112.105 44.2991 100.622C45.2881 89.5086 38.1649 82.4841 35.6501 80.4484Z" fill="white"/>
<path d="M92.1628 77.6211V118.464H83.4017V101.964H66.5658V118.464H57.5837V77.6211H66.5658V94.1205H83.4017V77.6211H92.1628Z" fill="#EBEBEB"/>
<path d="M132.669 77.6211V85.6992H128.499H120.091V118.46H111.078V85.6992H102.895H98.7251V77.6211H132.669Z" fill="#EBEBEB"/>
<path fill-rule="evenodd" clip-rule="evenodd" d="M164.573 118.504L154.276 104.292L144.057 118.443L134.065 118.457L149.212 97.6073L134.915 77.6211H144.9L174.517 118.504H164.573Z" fill="#EBEBEB"/>
<path d="M157.076 86.758L162.017 93.6228L173.725 77.6094H163.795L157.076 86.758Z" fill="white"/>
</g>
<defs>
<clipPath id="clip0_296_411">
<rect width="174" height="174" fill="white" transform="translate(0.5)"/>
</clipPath>
</defs>
</svg>
