<svg width="417" height="64" viewBox="0 0 417 64" fill="none" xmlns="http://www.w3.org/2000/svg">
<g clip-path="url(#clip0_296_476)">
<path d="M80.4095 49.2367C79.4397 49.2367 78.7542 49.0382 78.3528 48.642C77.985 48.2455 77.801 47.6177 77.801 46.7587V18.0646C77.801 17.2056 78.0015 16.5778 78.4029 16.1814C78.8043 15.7519 79.4729 15.5371 80.4095 15.5371H92.6991C97.3808 15.5371 100.825 16.5118 103.033 18.461C105.24 20.4103 106.343 23.3177 106.343 27.1833C106.343 31.0157 105.24 33.9066 103.033 35.8559C100.859 37.7723 97.4143 38.7304 92.6991 38.7304H87.9337V46.7587C87.9337 47.6177 87.7332 48.2455 87.3318 48.642C86.9304 49.0382 86.2449 49.2367 85.2751 49.2367H80.4095ZM91.8967 31.5444C93.2678 31.5444 94.3212 31.181 95.0569 30.4541C95.8258 29.7273 96.2106 28.637 96.2106 27.1833C96.2106 25.6965 95.8258 24.5897 95.0569 23.8629C94.3212 23.136 93.2678 22.7726 91.8967 22.7726H87.9337V31.5444H91.8967Z" fill="white"/>
<path d="M118.189 49.9796C115.046 49.9796 112.521 48.9884 110.615 47.0064C108.742 44.9909 107.806 42.1662 107.806 38.5317C107.806 35.7565 108.442 33.3281 109.712 31.2467C111.016 29.1653 112.839 27.563 115.18 26.4396C117.554 25.2833 120.28 24.7051 123.356 24.7051C125.898 24.7051 128.139 24.9859 130.078 25.5476C132.051 26.0762 133.857 26.8526 135.495 27.8768V47.7001C135.495 48.3279 135.379 48.7408 135.144 48.9389C134.91 49.1374 134.442 49.2364 133.74 49.2364H128.623C128.255 49.2364 127.971 49.1869 127.771 49.0875C127.57 48.9556 127.403 48.7572 127.269 48.4928L126.617 47.0064C125.647 48.0304 124.477 48.7739 123.106 49.2364C121.768 49.732 120.129 49.9796 118.189 49.9796ZM121.952 43.2397C123.256 43.2397 124.276 42.9258 125.012 42.2984C125.747 41.6706 126.115 40.7784 126.115 39.6219V31.891C125.48 31.5937 124.677 31.445 123.707 31.445C121.935 31.445 120.514 32.0562 119.444 33.2785C118.407 34.501 117.889 36.219 117.889 38.4326C117.889 41.6375 119.243 43.2397 121.952 43.2397Z" fill="white"/>
<path d="M142.476 49.2364C141.506 49.2364 140.821 49.038 140.42 48.6417C140.018 48.2452 139.818 47.6174 139.818 46.7584V26.9848C139.818 26.3901 139.918 25.9936 140.118 25.7954C140.352 25.5641 140.821 25.4485 141.523 25.4485H146.69C147.091 25.4485 147.392 25.5145 147.593 25.6467C147.827 25.7458 147.96 25.944 147.994 26.2414L148.245 27.7281C149.181 26.8031 150.402 26.0762 151.906 25.5476C153.445 24.9859 155.15 24.7051 157.023 24.7051C159.732 24.7051 161.922 25.465 163.594 26.9848C165.266 28.4715 166.102 30.6851 166.102 33.6256V46.7584C166.102 47.6174 165.902 48.2452 165.5 48.6417C165.133 49.038 164.464 49.2364 163.494 49.2364H158.628C157.658 49.2364 156.956 49.038 156.521 48.6417C156.12 48.2452 155.919 47.6174 155.919 46.7584V34.2697C155.919 33.2785 155.702 32.5684 155.267 32.1388C154.833 31.7093 154.147 31.4945 153.211 31.4945C152.208 31.4945 151.405 31.7588 150.803 32.2873C150.234 32.8161 149.95 33.5429 149.95 34.4682V46.7584C149.95 47.6174 149.749 48.2452 149.348 48.6417C148.981 49.038 148.312 49.2364 147.342 49.2364H142.476Z" fill="white"/>
<path d="M183.833 49.9796C179.151 49.9796 175.54 48.9058 172.998 46.7584C170.457 44.611 169.186 41.4889 169.186 37.3919C169.186 34.8811 169.771 32.6675 170.941 30.7512C172.112 28.8349 173.801 27.3482 176.008 26.291C178.248 25.2337 180.89 24.7051 183.933 24.7051C186.241 24.7051 188.181 24.9198 189.752 25.3494C191.357 25.7788 192.779 26.4396 194.016 27.3317C194.384 27.563 194.568 27.8603 194.568 28.2237C194.568 28.488 194.434 28.8349 194.166 29.2644L192.11 32.7829C191.876 33.2457 191.591 33.477 191.257 33.477C191.056 33.477 190.739 33.3448 190.304 33.0804C189.401 32.5189 188.548 32.1058 187.746 31.8415C186.976 31.5771 186.007 31.445 184.836 31.445C183.164 31.445 181.81 31.9736 180.773 33.0309C179.77 34.088 179.268 35.5417 179.268 37.3919C179.268 39.2752 179.787 40.7289 180.823 41.7529C181.86 42.7441 183.281 43.2397 185.087 43.2397C186.157 43.2397 187.127 43.0911 187.997 42.7936C188.866 42.4965 189.752 42.0835 190.655 41.5548C191.123 41.2904 191.458 41.1583 191.659 41.1583C191.959 41.1583 192.227 41.3895 192.461 41.8523L194.718 45.6682C194.885 45.9985 194.969 46.2628 194.969 46.4609C194.969 46.7584 194.768 47.0392 194.367 47.3035C192.963 48.1957 191.424 48.8563 189.752 49.2859C188.114 49.7484 186.141 49.9796 183.833 49.9796Z" fill="white"/>
<path d="M207.687 49.9796C204.544 49.9796 202.019 48.9884 200.113 47.0064C198.24 44.9909 197.304 42.1662 197.304 38.5317C197.304 35.7565 197.939 33.3281 199.21 31.2467C200.514 29.1653 202.337 27.563 204.678 26.4396C207.052 25.2833 209.778 24.7051 212.854 24.7051C215.396 24.7051 217.636 24.9859 219.576 25.5476C221.549 26.0762 223.355 26.8526 224.993 27.8768V47.7001C224.993 48.3279 224.876 48.7408 224.642 48.9389C224.408 49.1374 223.94 49.2364 223.237 49.2364H218.121C217.753 49.2364 217.469 49.1869 217.268 49.0875C217.068 48.9556 216.9 48.7572 216.767 48.4928L216.115 47.0064C215.145 48.0304 213.974 48.7739 212.603 49.2364C211.266 49.732 209.627 49.9796 207.687 49.9796ZM211.449 43.2397C212.754 43.2397 213.774 42.9258 214.509 42.2984C215.245 41.6706 215.613 40.7784 215.613 39.6219V31.891C214.978 31.5937 214.175 31.445 213.205 31.445C211.433 31.445 210.012 32.0562 208.941 33.2785C207.905 34.501 207.386 36.219 207.386 38.4326C207.386 41.6375 208.741 43.2397 211.449 43.2397Z" fill="white"/>
<path d="M256.503 47.3533C256.737 47.6177 256.854 47.9152 256.854 48.2455C256.854 48.5427 256.754 48.7906 256.553 48.9887C256.353 49.154 256.085 49.2367 255.751 49.2367H247.976C247.508 49.2367 247.156 49.2036 246.922 49.1376C246.722 49.0382 246.504 48.8565 246.27 48.5925L239.448 39.4241V46.7587C239.448 47.6177 239.248 48.2455 238.846 48.642C238.445 49.0382 237.759 49.2367 236.79 49.2367H231.924C230.954 49.2367 230.269 49.0382 229.867 48.642C229.499 48.2455 229.315 47.6177 229.315 46.7587V18.0646C229.315 17.2056 229.516 16.5778 229.917 16.1814C230.319 15.7519 230.988 15.5371 231.924 15.5371H236.79C237.759 15.5371 238.445 15.7519 238.846 16.1814C239.248 16.5778 239.448 17.2056 239.448 18.0646V34.6665L246.07 26.1426C246.27 25.8782 246.488 25.6965 246.722 25.5974C246.956 25.4983 247.307 25.4487 247.775 25.4487H255.55C255.885 25.4487 256.135 25.5478 256.303 25.7461C256.503 25.9113 256.604 26.1426 256.604 26.4399C256.604 26.7703 256.487 27.0676 256.252 27.332L247.675 37.0455L256.503 47.3533Z" fill="white"/>
<path d="M272.791 49.9796C269.982 49.9796 267.474 49.5172 265.267 48.5922C263.093 47.667 261.371 46.2792 260.1 44.4293C258.829 42.5791 258.194 40.316 258.194 37.6399C258.194 33.4438 259.398 30.2391 261.806 28.0255C264.213 25.8119 267.674 24.7051 272.189 24.7051C276.603 24.7051 279.948 25.7954 282.221 27.9759C284.529 30.1234 285.683 33.1136 285.683 36.9458C285.683 38.5979 284.947 39.4238 283.476 39.4238H267.725C267.725 40.8444 268.259 41.9349 269.33 42.6946C270.433 43.4545 272.089 43.8344 274.296 43.8344C275.667 43.8344 276.804 43.7189 277.707 43.4877C278.643 43.2233 279.58 42.8435 280.516 42.3479C280.917 42.1826 281.185 42.0999 281.318 42.0999C281.619 42.0999 281.87 42.2984 282.071 42.6946L283.776 45.8663C283.944 46.1969 284.027 46.4445 284.027 46.6098C284.027 46.907 283.826 47.1881 283.425 47.4521C282.054 48.3443 280.499 48.9884 278.76 49.385C277.021 49.7815 275.031 49.9796 272.791 49.9796ZM276.654 34.5177C276.654 33.2621 276.286 32.2873 275.55 31.5937C274.814 30.8999 273.71 30.5529 272.239 30.5529C270.768 30.5529 269.648 30.9164 268.878 31.6432C268.109 32.3372 267.725 33.2953 267.725 34.5177H276.654Z" fill="white"/>
<path d="M302.876 49.9811C300.067 49.9811 297.408 49.7003 294.9 49.1388C292.392 48.5438 290.369 47.7179 288.83 46.6608C288.262 46.2974 287.978 45.9173 287.978 45.521C287.978 45.2567 288.078 44.9759 288.279 44.6784L290.737 40.813C291.004 40.4165 291.271 40.2184 291.539 40.2184C291.706 40.2184 291.991 40.3338 292.392 40.5651C293.629 41.2591 295.034 41.8206 296.606 42.25C298.177 42.6796 299.732 42.8945 301.271 42.8945C302.842 42.8945 303.996 42.6632 304.732 42.2004C305.501 41.738 305.885 40.9947 305.885 39.9704C305.885 38.9792 305.467 38.2028 304.631 37.6413C303.829 37.0795 302.307 36.3694 300.067 35.5103C296.689 34.2548 294.047 32.8506 292.141 31.2978C290.268 29.7119 289.332 27.5644 289.332 24.8552C289.332 21.5844 290.519 19.09 292.894 17.3719C295.268 15.6539 298.428 14.7949 302.374 14.7949C305.116 14.7949 307.457 15.0427 309.397 15.5383C311.37 16.0008 313.042 16.7277 314.413 17.7189C314.982 18.1484 315.266 18.5448 315.266 18.9083C315.266 19.1395 315.165 19.4038 314.965 19.7012L312.507 23.5667C312.206 23.9632 311.938 24.1614 311.704 24.1614C311.537 24.1614 311.253 24.0458 310.852 23.8145C308.912 22.559 306.604 21.9313 303.929 21.9313C302.491 21.9313 301.388 22.1625 300.618 22.6251C299.849 23.0876 299.465 23.8475 299.465 24.9048C299.465 25.6316 299.665 26.2263 300.067 26.6889C300.468 27.1514 301.003 27.5644 301.672 27.9278C302.374 28.2582 303.444 28.6877 304.882 29.2163L305.835 29.5632C308.31 30.5214 310.25 31.4464 311.654 32.3386C313.092 33.1973 314.179 34.2712 314.914 35.5599C315.65 36.8151 316.018 38.401 316.018 40.3174C316.018 43.2579 314.898 45.6037 312.657 47.3545C310.45 49.1057 307.19 49.9811 302.876 49.9811Z" fill="white"/>
<path d="M326.676 49.2371C326.175 49.2371 325.791 49.1545 325.522 48.9892C325.255 48.8242 325.054 48.4936 324.92 47.998L318.449 26.589C318.383 26.3908 318.349 26.2421 318.349 26.143C318.349 25.6805 318.683 25.4492 319.352 25.4492H325.973C326.409 25.4492 326.725 25.5318 326.927 25.697C327.129 25.8291 327.262 26.0604 327.327 26.3908L330.036 37.6406L333.447 28.5714C333.616 28.1749 333.782 27.9106 333.948 27.7784C334.15 27.6132 334.485 27.5306 334.954 27.5306H338.112C338.581 27.5306 338.9 27.6132 339.066 27.7784C339.267 27.9106 339.45 28.1749 339.619 28.5714L342.978 37.6406L345.739 26.3908C345.837 26.0604 345.97 25.8291 346.139 25.697C346.305 25.5318 346.608 25.4492 347.041 25.4492H353.714C354.382 25.4492 354.717 25.6805 354.717 26.143C354.717 26.2421 354.684 26.3908 354.616 26.589L348.096 47.998C347.962 48.4936 347.76 48.8242 347.494 48.9892C347.259 49.1545 346.891 49.2371 346.39 49.2371H341.475C341.006 49.2371 340.654 49.1545 340.42 48.9892C340.185 48.7911 339.987 48.4608 339.818 47.998L336.507 39.028L333.196 47.998C333.063 48.4608 332.861 48.7911 332.594 48.9892C332.36 49.1545 332.011 49.2371 331.543 49.2371H326.676Z" fill="white"/>
<path d="M367.432 49.9796C364.287 49.9796 361.764 48.9884 359.857 47.0064C357.985 44.9909 357.048 42.1662 357.048 38.5317C357.048 35.7565 357.682 33.3281 358.955 31.2467C360.257 29.1653 362.08 27.563 364.421 26.4396C366.797 25.2833 369.522 24.7051 372.598 24.7051C375.14 24.7051 377.38 24.9859 379.32 25.5476C381.293 26.0762 383.1 26.8526 384.737 27.8768V47.7001C384.737 48.3279 384.62 48.7408 384.385 48.9389C384.151 49.1374 383.685 49.2364 382.982 49.2364H377.865C377.497 49.2364 377.214 49.1869 377.012 49.0875C376.81 48.9556 376.644 48.7572 376.511 48.4928L375.86 47.0064C374.89 48.0304 373.718 48.7739 372.347 49.2364C371.009 49.732 369.372 49.9796 367.432 49.9796ZM371.195 43.2397C372.497 43.2397 373.519 42.9258 374.255 42.2984C374.991 41.6706 375.358 40.7784 375.358 39.6219V31.891C374.72 31.5937 373.92 31.445 372.95 31.445C371.176 31.445 369.756 32.0562 368.685 33.2785C367.65 34.501 367.129 36.219 367.129 38.4326C367.129 41.6375 368.487 43.2397 371.195 43.2397Z" fill="white"/>
<path d="M391.668 59.2471C390.697 59.2471 390.014 59.049 389.61 58.6524C389.242 58.2559 389.06 57.6281 389.06 56.7691V28.3724C390.564 27.3152 392.455 26.4396 394.727 25.7458C397.003 25.052 399.376 24.7051 401.85 24.7051C411.951 24.7051 417 28.934 417 37.3919C417 41.2245 415.929 44.2804 413.79 46.5603C411.648 48.8399 408.624 49.9796 404.711 49.9796C403.608 49.9796 402.537 49.8475 401.498 49.5831C400.496 49.3191 399.659 48.9556 398.992 48.4928V56.7691C398.992 57.6281 398.79 58.2559 398.39 58.6524C397.989 59.049 397.302 59.2471 396.332 59.2471H391.668ZM402.553 43.2892C403.992 43.2892 405.063 42.7608 405.763 41.7034C406.499 40.6131 406.866 39.1595 406.866 37.3424C406.866 35.195 406.433 33.6915 405.564 32.8325C404.728 31.9406 403.422 31.4945 401.651 31.4945C400.512 31.4945 399.61 31.6432 398.943 31.9406V39.8204C398.943 40.9437 399.259 41.8028 399.894 42.3974C400.532 42.9921 401.417 43.2892 402.553 43.2892Z" fill="white"/>
<path fill-rule="evenodd" clip-rule="evenodd" d="M31.7573 63.8736C22.2543 63.8665 14.5994 61.6137 9.25089 57.5672C3.83819 53.4722 0.966797 47.6607 0.966797 41.0848C0.966797 34.7488 3.83191 30.1801 7.07377 27.0918C9.61438 24.6716 12.418 23.1216 14.3702 22.23C13.9287 20.8915 13.3779 19.1392 12.8851 17.3293C12.2258 14.9074 11.5789 12.0659 11.5789 9.98365C11.5789 7.51903 12.1228 5.04388 13.5893 3.12058C15.1387 1.08857 17.4713 0 20.2774 0C22.4705 0 24.3324 0.803708 25.7901 2.19019C27.1835 3.51547 28.1108 5.27547 28.7511 7.11017C29.8763 10.3341 30.3143 14.3844 30.4372 18.4264H33.125C33.2481 14.3844 33.6859 10.3341 34.8113 7.11017C35.4516 5.27547 36.3787 3.51547 37.7723 2.19019C39.23 0.803708 41.0917 0 43.2847 0C46.0911 0 48.4235 1.08857 49.973 3.12058C51.4395 5.04388 51.9835 7.51903 51.9835 9.98365C51.9835 12.0659 51.3363 14.9074 50.6771 17.3293C50.1843 19.1392 49.6335 20.8915 49.1921 22.23C51.1443 23.1216 53.948 24.6716 56.4884 27.0918C59.7304 30.1801 62.5953 34.7488 62.5953 41.0848C62.5953 47.6607 59.7242 53.4722 54.3113 57.5672C48.9629 61.6137 41.3078 63.8665 31.8049 63.8736H31.7573Z" fill="white"/>
<path d="M20.2772 2.34375C16.1672 2.34375 14.2752 5.40397 14.2752 9.63617C14.2752 13.0002 16.4735 19.7373 17.3754 22.36C17.5783 22.9499 17.2595 23.5962 16.6782 23.8249C13.3841 25.1212 3.66309 29.8675 3.66309 40.7375C3.66309 52.1877 13.5419 60.8213 31.7592 60.8351C31.7664 60.8351 31.7736 60.8348 31.7809 60.8348C31.7882 60.8348 31.7954 60.8351 31.8026 60.8351C50.0198 60.8213 59.8985 52.1877 59.8985 40.7375C59.8985 29.8675 50.1777 25.1212 46.8837 23.8249C46.3023 23.5962 45.9836 22.9499 46.1864 22.36C47.0884 19.7373 49.2867 13.0002 49.2867 9.63617C49.2867 5.40397 47.3947 2.34375 43.2846 2.34375C37.3685 2.34375 35.8935 10.7079 35.7884 19.6846C35.7816 20.2839 35.2959 20.7701 34.6956 20.7701H28.8663C28.2658 20.7701 27.7804 20.2839 27.7734 19.6846C27.6682 10.7079 26.1934 2.34375 20.2772 2.34375Z" fill="#E8E8E8"/>
<path d="M31.8026 57.1676C18.4175 57.1676 3.68623 50.0166 3.66315 40.7598C3.66312 40.7739 3.66309 40.7884 3.66309 40.8029C3.66309 52.2624 13.5576 60.9005 31.8026 60.9005C50.0478 60.9005 59.9422 52.2624 59.9422 40.8029C59.9422 40.7884 59.9422 40.7739 59.9422 40.7598C59.9191 50.0166 45.1877 57.1676 31.8026 57.1676Z" fill="white"/>
<path d="M24.3655 37.9171C24.3655 41.0425 22.8856 42.6702 21.0601 42.6702C19.2345 42.6702 17.7546 41.0425 17.7546 37.9171C17.7546 34.7917 19.2345 33.1641 21.0601 33.1641C22.8856 33.1641 24.3655 34.7917 24.3655 37.9171Z" fill="#525252"/>
<path d="M45.8508 37.9171C45.8508 41.0425 44.3709 42.6702 42.5454 42.6702C40.7198 42.6702 39.24 41.0425 39.24 37.9171C39.24 34.7917 40.7198 33.1641 42.5454 33.1641C44.3709 33.1641 45.8508 34.7917 45.8508 37.9171Z" fill="#525252"/>
</g>
<defs>
<clipPath id="clip0_296_476">
<rect width="417" height="64" fill="white"/>
</clipPath>
</defs>
</svg>
