<svg width="579" height="140" viewBox="0 0 579 140" fill="none" xmlns="http://www.w3.org/2000/svg">
<path d="M169.289 24.8982H184.178V95.4209H223.533V108.443H169.289V24.8982Z" fill="white"/>
<path d="M229.323 91.4476C229.323 79.8135 238.037 74.6906 249.814 72.2489L266.667 68.7539V67.7006C266.667 61.8596 263.651 58.2689 256.182 58.2689C249.527 58.2689 246.08 61.2851 244.404 67.2218L231.238 64.2056C234.254 54.1036 243.207 46.156 256.709 46.156C271.359 46.156 280.216 53.146 280.216 67.2218V93.5063C280.216 97.0013 281.748 98.0546 285.578 97.5758V108.396C275.476 109.545 270.114 107.582 268.008 102.555C264.177 106.864 257.762 109.401 249.862 109.401C238.228 109.401 229.275 102.316 229.275 91.3518L229.323 91.4476ZM266.667 79.4783L253.501 82.2552C247.564 83.5479 243.159 85.4151 243.159 90.873C243.159 95.6607 246.654 98.3418 252.017 98.3418C259.485 98.3418 266.667 94.368 266.667 86.9471V79.4783Z" fill="white"/>
<path d="M309.516 102.028V108.443H295.536V24.8982H309.516V53.8637C313.347 49.3154 319.188 46.2034 327.087 46.2034C344.179 46.2034 353.946 60.6144 353.946 77.9937C353.946 95.373 344.179 109.784 327.087 109.784C319.188 109.784 313.347 106.624 309.516 102.124V102.028ZM309.181 79.813C309.181 91.112 315.693 97.4796 324.31 97.4796C334.412 97.4796 339.918 89.5799 339.918 77.9458C339.918 66.3117 334.46 58.412 324.31 58.412C315.693 58.412 309.181 64.6839 309.181 76.2222V79.813Z" fill="white"/>
<path d="M360.939 77.9463C360.939 60.0403 373.052 46.156 390.049 46.156C407.045 46.156 417.147 59.5615 417.147 76.3185V80.9625H374.297C375.35 91.4476 381.622 97.8152 390.575 97.8152C397.422 97.8152 402.928 94.3202 404.795 88.0483L416.764 92.5966C412.455 103.321 402.784 109.689 390.575 109.689C373.1 109.689 360.892 96.7619 360.892 77.8984L360.939 77.9463ZM375.015 70.4775H403.071C402.975 63.7268 398.762 57.9337 389.905 57.9337C382.676 57.9337 377.122 62.2426 375.015 70.4775Z" fill="white"/>
<path d="M441.616 108.443H427.636V24.8982H441.616V108.443Z" fill="white"/>
<path d="M522.624 24.8982L554.27 108.443H539.237L532.007 89.3405H495.908L488.823 108.443H474.029L505.675 24.8982H522.528H522.624ZM500.84 76.318H527.124L513.862 41.4157L500.84 76.318Z" fill="white"/>
<path d="M578.207 108.443H563.317V24.8982H578.207V108.443Z" fill="white"/>
<path d="M69.5175 139.035C107.911 139.035 139.035 107.911 139.035 69.5175C139.035 31.1242 107.911 0.000244141 69.5175 0.000244141C31.1242 0.000244141 0.000244141 31.1242 0.000244141 69.5175C0.000244141 107.911 31.1242 139.035 69.5175 139.035Z" fill="white"/>
<path opacity="0.95" d="M50.0842 115.718C33.9496 106.909 22.9858 89.769 22.9858 70.0915C22.9858 50.4141 33.9018 33.2742 50.0363 24.4648C39.5034 36.7213 33.0879 52.6643 33.0879 70.0915C33.0879 87.5187 39.5034 103.51 50.0842 115.718Z" fill="#262626"/>
<path opacity="0.8" d="M110.881 82.8261C113.71 82.8261 116.004 76.8671 116.004 69.5163C116.004 62.1655 113.71 56.2065 110.881 56.2065C108.052 56.2065 105.758 62.1655 105.758 69.5163C105.758 76.8671 108.052 82.8261 110.881 82.8261Z" fill="#262626"/>
<g opacity="0.85">
<path d="M88.4329 24.3699C84.8422 24.3699 81.5865 27.7213 78.9533 33.4186C78.4745 34.4719 77.9958 35.5731 77.5649 36.77C74.5007 45.0048 72.6335 56.6389 72.6335 69.5657C72.6335 82.4924 74.5486 94.1265 77.5649 102.361C77.9958 103.558 78.4745 104.659 78.9533 105.713C81.5865 111.41 84.89 114.761 88.4329 114.761C97.1944 114.761 104.28 94.5574 104.28 69.5657C104.28 44.5739 97.1944 24.3699 88.4329 24.3699ZM92.8855 95.7543C87.8105 95.7543 83.6931 84.0245 83.6931 69.5657C83.6931 55.1068 87.8105 43.377 92.8855 43.377C97.9604 43.377 102.078 55.1068 102.078 69.5657C102.078 84.0245 97.9604 95.7543 92.8855 95.7543Z" fill="#262626"/>
</g>
<path opacity="0.9" d="M76.3681 104.038C76.9427 105.426 77.5172 106.767 78.1875 107.964C75.2191 116.247 71.2453 121.274 66.9364 121.274C57.6483 121.274 50.1316 98.1013 50.1316 69.5667C50.1316 41.032 57.6483 17.8596 66.9364 17.8596C71.2932 17.8596 75.2191 22.8867 78.1875 31.1694C77.5172 32.3663 76.9427 33.659 76.3681 35.0953C75.1233 33.5632 73.7349 32.7015 72.2986 32.7015C65.9788 32.7015 60.856 49.219 60.856 69.6145C60.856 90.0101 65.9788 106.528 72.2986 106.528C73.7349 106.528 75.0755 105.666 76.3681 104.134V104.038Z" fill="#262626"/>
</svg>
