<svg width="39" height="28" viewBox="0 0 39 28" fill="none" xmlns="http://www.w3.org/2000/svg">
<path d="M33.5951 3.10506C30.2204 0.467272 24.8817 0.0201345 24.6532 0.00404982C24.2988 -0.0249013 23.961 0.168108 23.8153 0.486573C23.8021 0.505874 23.6861 0.766436 23.557 1.17175C25.7891 1.53847 28.5313 2.27512 31.0119 3.77094C31.4093 4.00899 31.5318 4.51724 31.2868 4.90326C31.1245 5.15739 30.8496 5.29571 30.5648 5.29571C30.4124 5.29571 30.2568 5.25389 30.1177 5.17026C25.8521 2.60002 20.5267 2.47135 19.5 2.47135C18.4733 2.47135 13.1446 2.60002 8.8823 5.17026C8.48489 5.41152 7.96162 5.2925 7.71654 4.90648C7.46816 4.51724 7.59069 4.0122 7.98811 3.77094C10.4687 2.27834 13.2109 1.53847 15.443 1.17497C15.3139 0.766436 15.1979 0.509091 15.188 0.486573C15.039 0.168108 14.7045 -0.0313345 14.3468 0.00404982C14.1183 0.0201345 8.77964 0.467272 5.35853 3.14045C3.57345 4.74564 0 14.1259 0 22.2355C0 22.3802 0.0397418 22.5185 0.112602 22.644C2.5766 26.8516 9.3029 27.9517 10.8363 28C10.8429 28 10.8528 28 10.8628 28C11.1343 28 11.3894 27.8745 11.5483 27.6622L13.0983 25.5906C8.91542 24.5419 6.7793 22.7598 6.65676 22.6537C6.30571 22.3545 6.27259 21.8334 6.5839 21.4924C6.8919 21.1514 7.42841 21.1192 7.77947 21.4184C7.82914 21.4634 11.7636 24.706 19.5 24.706C27.2497 24.706 31.1841 21.4506 31.2238 21.4184C31.5749 21.1224 32.1081 21.1514 32.4194 21.4956C32.7274 21.8366 32.6943 22.3545 32.3432 22.6537C32.2207 22.7598 30.0846 24.5419 25.9017 25.5906L27.4517 27.6622C27.6106 27.8745 27.8657 28 28.1372 28C28.1472 28 28.1571 28 28.1637 28C29.6971 27.9517 36.4234 26.8516 38.8874 22.644C38.9603 22.5185 39 22.3802 39 22.2355C39 14.1259 35.4265 4.74564 33.5951 3.10506ZM13.9891 18.9414C12.3498 18.9414 11.0217 17.4681 11.0217 15.6474C11.0217 13.8267 12.3498 12.3534 13.9891 12.3534C15.6285 12.3534 16.9565 13.8267 16.9565 15.6474C16.9565 17.4681 15.6285 18.9414 13.9891 18.9414ZM25.0109 18.9414C23.3715 18.9414 22.0435 17.4681 22.0435 15.6474C22.0435 13.8267 23.3715 12.3534 25.0109 12.3534C26.6502 12.3534 27.9783 13.8267 27.9783 15.6474C27.9783 17.4681 26.6502 18.9414 25.0109 18.9414Z" fill="white"/>
</svg>
