<svg width="35" height="33" viewBox="0 0 35 33" fill="none" xmlns="http://www.w3.org/2000/svg">
<path d="M17.5 0C7.835 0 0 6.3425 0 14.1667C0 19.1583 3.19667 23.5375 8.015 26.0608L6.16583 32.225C6.05333 32.5992 6.47083 32.9083 6.79583 32.6917L13.8142 28.0125C15.0033 28.2192 16.235 28.3333 17.5 28.3333C27.165 28.3333 35 21.9908 35 14.1667C35 6.3425 27.165 0 17.5 0Z" fill="white"/>
<path d="M9.99984 11.6647H4.99984C4.53984 11.6647 4.1665 11.2914 4.1665 10.8314C4.1665 10.3714 4.53984 9.99805 4.99984 9.99805H9.99984C10.4598 9.99805 10.8332 10.3714 10.8332 10.8314C10.8332 11.2914 10.4598 11.6647 9.99984 11.6647Z" fill="black"/>
<path d="M18.3328 18.3314V10.8314C18.3328 10.3714 18.7061 9.99805 19.1661 9.99805C19.6261 9.99805 19.9994 10.3714 19.9994 10.8314V18.3314C19.9994 18.7914 19.6261 19.1647 19.1661 19.1647C18.7061 19.1647 18.3328 18.7914 18.3328 18.3314Z" fill="black"/>
<path d="M24.166 18.3314V10.8314C24.166 10.3714 24.5393 9.99805 24.9993 9.99805C25.4593 9.99805 25.8327 10.3714 25.8327 10.8314V18.3314C25.8327 18.7914 25.4593 19.1647 24.9993 19.1647C24.5393 19.1647 24.166 18.7914 24.166 18.3314Z" fill="black"/>
<path d="M24.6834 14.3374L28.7784 10.2424C29.1043 9.91659 29.6318 9.91659 29.9568 10.2424C30.2826 10.5683 30.2826 11.0958 29.9568 11.4208L25.8618 15.5158C25.5359 15.8416 25.0084 15.8416 24.6834 15.5158C24.3584 15.1908 24.3584 14.6633 24.6834 14.3374Z" fill="black"/>
<path d="M27.5643 13.8845L30.6543 17.8154C30.9385 18.177 30.876 18.7012 30.5143 18.9854C30.1526 19.2695 29.6285 19.207 29.3443 18.8454L26.2543 14.9145C25.9701 14.5529 26.0326 14.0287 26.3943 13.7445C26.756 13.4604 27.2801 13.5229 27.5643 13.8845Z" fill="black"/>
<path d="M22.4994 19.1647H19.1661C18.7061 19.1647 18.3328 18.7914 18.3328 18.3314C18.3328 17.8714 18.7061 17.498 19.1661 17.498H22.4994C22.9594 17.498 23.3328 17.8714 23.3328 18.3314C23.3328 18.7914 22.9594 19.1647 22.4994 19.1647Z" fill="black"/>
<path d="M17.4437 18.0326L14.7596 10.5326C14.6387 10.2168 14.3454 10.0235 14.0279 10.0085C13.9354 10.0043 13.5779 10.006 13.4937 10.0076C13.1671 10.0135 12.8629 10.2085 12.7387 10.5326L10.0546 18.0326C9.88958 18.4626 10.1046 18.9443 10.5346 19.1093C10.9646 19.2743 11.4462 19.0593 11.6112 18.6293L12.0162 17.4976H15.4829L15.8879 18.6293C16.0529 19.0593 16.5346 19.2735 16.9646 19.1093C17.3946 18.9451 17.6087 18.4618 17.4437 18.0326ZM12.6129 15.831L13.7496 12.6543L14.8862 15.831H12.6129Z" fill="black"/>
<path d="M8.33317 11.6641H6.6665V18.3307C6.6665 18.7907 7.03984 19.1641 7.49984 19.1641C7.95984 19.1641 8.33317 18.7907 8.33317 18.3307V11.6641Z" fill="black"/>
</svg>
