<svg width="39" height="22" viewBox="0 0 39 22" fill="none" xmlns="http://www.w3.org/2000/svg">
<path d="M11.0217 0C8.09859 0 5.29517 1.15892 3.22819 3.22183C1.16122 5.28473 0 8.08262 0 11C0 13.9174 1.16122 16.7153 3.22819 18.7782C5.29517 20.8411 8.09859 22 11.0217 22C13.9449 22 16.7483 20.8411 18.8153 18.7782C20.8823 16.7153 22.0435 13.9174 22.0435 11C22.0435 8.08262 20.8823 5.28473 18.8153 3.22183C16.7483 1.15892 13.9449 0 11.0217 0ZM28.4022 0.846154C25.3585 0.846154 22.8913 5.39254 22.8913 11C22.8913 12.0518 22.9778 13.0655 23.1389 14.0191C23.3534 15.2908 23.7001 16.4552 24.1495 17.4587C24.3742 17.9605 24.6243 18.4216 24.8964 18.8354C25.4407 19.6629 26.0732 20.3018 26.7633 20.6978C27.2813 20.9939 27.8316 21.1538 28.4022 21.1538C28.9728 21.1538 29.523 20.9939 30.041 20.6978C30.7311 20.3018 31.3636 19.6629 31.9079 18.8354C32.1801 18.4216 32.4302 17.9605 32.6549 17.4587C33.1042 16.456 33.451 15.2908 33.6655 14.0191C33.8266 13.0655 33.913 12.0518 33.913 11C33.913 5.39254 31.4459 0.846154 28.4022 0.846154ZM36.8804 1.69231C36.6608 1.69231 36.4489 1.83869 36.2505 2.11115C36.1174 2.29223 35.9902 2.52915 35.8707 2.816C35.8105 2.959 35.752 3.11469 35.696 3.28223C35.5833 3.61646 35.4781 3.99808 35.3823 4.41862C35.1907 5.26054 35.0356 6.26408 34.9279 7.37762C34.8745 7.93438 34.8329 8.51908 34.8041 9.12492C34.7753 9.72992 34.7609 10.3578 34.7609 11C34.7609 11.6422 34.7753 12.2701 34.8041 12.8759C34.8321 13.4818 34.8736 14.0665 34.9279 14.6232C35.0356 15.7368 35.1907 16.7395 35.3823 17.5822C35.4781 18.0036 35.5833 18.3844 35.696 18.7186C35.752 18.8862 35.8105 19.0418 35.8707 19.1848C35.9911 19.4717 36.1182 19.7086 36.2505 19.8897C36.4489 20.1613 36.6608 20.3077 36.8804 20.3077C38.0513 20.3077 39 16.1404 39 11C39 5.85962 38.0513 1.69231 36.8804 1.69231Z" fill="white"/>
</svg>
