<svg width="30" height="30" viewBox="0 0 30 30" fill="none" xmlns="http://www.w3.org/2000/svg">
<path d="M1.07143 0C0.792408 0 0.544085 0.106025 0.326451 0.31808C0.108817 0.530136 0 0.781252 0 1.07143V28.9286C0 29.2187 0.108817 29.4698 0.326451 29.6819C0.544085 29.894 0.792408 30 1.07143 30H28.9286C29.2076 30 29.4559 29.894 29.6735 29.6819C29.8912 29.4698 30 29.2187 30 28.9286V1.07143C30 0.781252 29.8912 0.530136 29.6735 0.31808C29.4559 0.106025 29.2076 0 28.9286 0H1.07143ZM6.71317 7.5H12.4888L17.5112 15V7.5H23.2868V22.5H17.5112L12.4888 15V22.5H6.71317V7.5Z" fill="white"/>
</svg>
