<svg width="31" height="26" viewBox="0 0 31 26" fill="none" xmlns="http://www.w3.org/2000/svg">
<path d="M2.08877 11.1767C11.6282 6.94864 23.9721 1.79385 25.6766 1.08024C30.1461 -0.786978 31.5177 -0.429484 30.8339 3.70645C30.3426 6.67915 28.926 16.5199 27.7961 22.6454C27.126 26.2781 25.622 26.7084 23.2584 25.1368C22.1215 24.3806 16.3829 20.5568 15.1369 19.6589C14.0001 18.8408 12.432 17.8563 14.3986 15.9176C15.0987 15.2274 19.6855 10.8137 23.2597 7.37901C23.7278 6.92802 23.1396 6.18691 22.5992 6.54852C17.7817 9.76735 11.1028 14.2346 10.2525 14.8163C8.96834 15.6949 7.73463 16.0977 5.52105 15.457C3.8479 14.973 2.21433 14.3955 1.57837 14.1755C-0.871309 13.3285 -0.289936 12.2313 2.08877 11.1767Z" fill="white"/>
</svg>
