<svg width="28" height="28" viewBox="0 0 28 28" fill="none" xmlns="http://www.w3.org/2000/svg">
<g clip-path="url(#clip0_335_304)">
<path d="M25.9889 25.1438L16.6068 11.8241L15.5462 10.3177L8.83491 0.789608L8.27888 0H0.0322266L2.04351 2.85623L10.9669 15.5264L12.0275 17.0312L19.1973 27.2113L19.7535 28.0002H28.0002L25.9889 25.144V25.1438ZM20.7336 26.1771L13.2848 15.601L12.2241 14.0955L3.58055 1.82292H7.29857L14.2887 11.7478L15.3494 13.2533L24.4516 26.1768H20.7336V26.1771Z" fill="white"/>
<path d="M12.2242 14.0957L13.2849 15.6012L12.0274 17.0314L2.37922 28.0005H0L10.9667 15.5266L12.2242 14.0957Z" fill="white"/>
<path d="M27.0073 0L16.607 11.8241L15.3495 13.2534L14.2888 11.7478L15.5463 10.3177L22.5913 2.30433L24.6281 0H27.0073Z" fill="white"/>
</g>
<defs>
<clipPath id="clip0_335_304">
<rect width="28" height="28" fill="white"/>
</clipPath>
</defs>
</svg>
