<svg width="234" height="31" viewBox="0 0 234 31" fill="none" xmlns="http://www.w3.org/2000/svg">
<path d="M32.1705 13.6763H16.4897V17.1877H32.1705V13.6763Z" fill="#646464"/>
<path d="M39.9922 0.878418H29.6296L32.1323 4.42891L39.7185 6.73087C41.1262 7.16005 42.0256 8.4866 41.9865 9.85218V21.1669C41.9865 22.5715 41.0871 23.859 39.7185 24.2882L32.1714 26.5902L29.6296 30.1407H39.9922C44.3328 30.1407 47.813 26.6292 47.813 22.3374V8.68169C47.8521 4.38989 44.3328 0.878418 39.9922 0.878418Z" fill="#646464"/>
<path d="M8.63039 0.878418H18.993L16.4903 4.42891L8.94322 6.73087C7.53547 7.16005 6.63608 8.4866 6.67518 9.85218V21.1669C6.67518 22.5715 7.57458 23.859 8.94322 24.2882L16.4903 26.5902L18.993 30.1407H8.63039C4.32894 30.1407 0.80957 26.6292 0.80957 22.3374V8.68169C0.80957 4.38989 4.32894 0.878418 8.63039 0.878418Z" fill="#646464"/>
<path d="M174.784 21.3234C174.784 23.8595 172.711 25.8883 170.13 25.8883C167.549 25.8883 165.477 23.8204 165.477 21.3234V10.1257C165.477 7.58964 167.549 5.56079 170.13 5.56079C172.672 5.56079 174.784 7.62865 174.784 10.1257V10.2427H178.342V10.0867C178.342 5.67784 174.666 2.04932 170.13 2.04932C165.594 2.04932 161.918 5.67784 161.918 10.1257V21.2844C161.918 25.7322 165.594 29.3608 170.13 29.3608C174.627 29.3608 178.303 25.7322 178.342 21.2844V21.1673H174.784V21.3234Z" fill="#646464"/>
<path d="M193.24 9.26709C189.486 9.26709 186.358 12.1933 186.202 15.8999V22.7667C186.397 26.4733 189.486 29.3995 193.24 29.3995C196.994 29.3995 200.084 26.4733 200.279 22.7667V15.8999C200.123 12.1933 197.033 9.26709 193.24 9.26709ZM196.721 22.3376C196.682 24.2884 195.156 25.81 193.24 25.81C191.324 25.81 189.799 24.2884 189.76 22.3376V16.29C189.76 14.3782 191.324 12.8176 193.24 12.8176C195.156 12.8176 196.721 14.3782 196.721 16.29V22.3376Z" fill="#646464"/>
<path d="M183.66 2.04932H180.102V28.9706H183.66V2.04932Z" fill="#646464"/>
<path d="M86.0179 9.26709H82.4595V28.9313H86.0179V9.26709Z" fill="#646464"/>
<path d="M78.9391 2.04932H75.3806V28.9706H78.9391V2.04932Z" fill="#646464"/>
<path d="M66.4263 2.04932H62.0857L54.9297 28.9316V28.9706H58.4491L60.3652 21.8306L68.186 21.8696L70.063 28.9706V29.0096H73.5823L66.4263 2.04932ZM67.2475 18.3191H61.3037L64.2756 7.16046L67.2475 18.3191Z" fill="#646464"/>
<path d="M213.379 22.7277C213.379 24.6395 211.815 26.2002 209.899 26.2002C207.983 26.2002 206.419 24.6395 206.419 22.7277V9.26709H202.86V23.313C202.86 26.6684 205.598 29.3995 208.961 29.3995C209.586 29.3995 210.173 29.3215 210.759 29.1264C211.111 29.0094 211.424 28.8923 211.737 28.7362C212.284 28.4631 212.793 28.112 213.223 27.6828L213.379 27.5267V28.9703H216.938V9.26709H213.379V22.7277Z" fill="#646464"/>
<path d="M86.0179 2.04932H82.4595V5.5998H86.0179V2.04932Z" fill="#646464"/>
<path d="M97.5139 9.26734C95.9106 9.26734 94.3855 9.8916 93.2515 11.0231L93.0951 11.1791V2.04932H89.5366V28.9706H93.0951V27.527L93.2515 27.6831C94.3855 28.8145 95.9106 29.4388 97.5139 29.4388C100.877 29.4388 103.614 26.7076 103.614 23.3522V15.3539C103.614 11.9595 100.877 9.26734 97.5139 9.26734ZM100.095 15.9782V22.6499C100.095 24.5617 98.5306 26.1614 96.5754 26.1614C94.6593 26.1614 93.056 24.6008 93.056 22.6499V15.9782C93.056 14.0664 94.6202 12.4667 96.5754 12.4667C98.5306 12.5057 100.095 14.0664 100.095 15.9782Z" fill="#646464"/>
<path d="M130.519 9.22832C128.915 9.22832 127.39 9.85259 126.256 10.9841L126.1 11.1401V2.04932H122.541V28.9706H126.1V27.527L126.256 27.6831C127.39 28.8145 128.915 29.4388 130.519 29.4388C133.881 29.4388 136.619 26.7076 136.619 23.3522V15.3149C136.619 11.9595 133.881 9.22832 130.519 9.22832ZM133.099 15.9782V22.6499C133.099 24.5617 131.535 26.1614 129.58 26.1614C127.664 26.1614 126.061 24.6008 126.061 22.6499V15.9782C126.061 14.0664 127.625 12.4667 129.58 12.4667C131.535 12.4667 133.099 14.0664 133.099 15.9782Z" fill="#646464"/>
<path d="M230.038 2.04932V11.1401L229.882 10.9841C228.748 9.85258 227.223 9.22832 225.62 9.22832C222.257 9.22832 219.519 11.9595 219.519 15.3149V23.2742V23.3132C219.519 26.6686 222.257 29.3608 225.62 29.3608C227.223 29.3608 228.748 28.7365 229.882 27.605L230.038 27.449V28.8926H233.597V2.04932H230.038ZM229.999 15.9782V22.6499C229.999 24.5617 228.435 26.1614 226.48 26.1614C224.564 26.1614 222.96 24.6008 222.96 22.6499V15.9782C222.96 14.0664 224.525 12.4667 226.48 12.4667C228.435 12.4667 229.999 14.0664 229.999 15.9782Z" fill="#646464"/>
<path d="M120 15.9389C120 15.7438 119.96 15.5097 119.921 15.2366V15.1586C119.726 14.1051 119.335 13.0907 118.709 12.1933C117.458 10.4376 115.542 9.38414 113.43 9.26709C113.391 9.26709 113.156 9.26709 113.039 9.26709C111.397 9.26709 109.793 9.85234 108.503 10.9058C107.252 11.9592 106.391 13.4028 106.078 15.0415V15.0805H109.559V15.0415C109.872 13.4028 111.318 12.2323 112.961 12.2323C113.86 12.2323 114.72 12.5835 115.385 13.2077C116.05 13.832 116.402 14.6904 116.441 15.5877V17.2264H111.397C108.034 17.2264 105.296 19.9576 105.296 23.313C105.296 26.1221 107.252 28.5021 109.872 29.2044C109.911 29.2044 109.95 29.2044 109.95 29.2435C110.067 29.2825 110.184 29.2825 110.302 29.3215C110.419 29.3605 110.575 29.3605 110.732 29.3995C110.771 29.3995 110.771 29.3995 110.81 29.3995C111.084 29.4385 111.397 29.4385 111.749 29.4385C112.609 29.4385 113.352 29.3215 113.86 29.1264C114.76 28.8533 115.581 28.3461 116.285 27.6828L116.441 27.5267V28.9703H120V26.6294V15.9389ZM112.1 19.8795H116.402V22.3766C116.402 24.2494 115.033 25.8881 113.195 26.2392C112.922 26.3172 112.648 26.3172 112.413 26.3172C111.788 26.3172 111.201 26.1612 110.615 25.81C110.458 25.732 110.302 25.6149 110.145 25.5369C109.95 25.3808 109.754 25.1858 109.598 24.9907L109.559 24.9517C109.129 24.4054 108.894 23.7422 108.894 23.0399C108.933 21.2841 110.341 19.8795 112.1 19.8795Z" fill="#646464"/>
<path d="M153.042 15.9389C153.042 15.7438 153.003 15.5097 152.964 15.2366V15.1586C152.768 14.1051 152.377 13.0907 151.752 12.1933C150.5 10.4376 148.584 9.38414 146.473 9.26709C146.433 9.26709 146.199 9.26709 146.081 9.26709C144.439 9.26709 142.836 9.85234 141.545 10.9058C140.294 11.9592 139.434 13.4028 139.121 15.0415V15.0805H142.601V15.0415C142.914 13.4028 144.361 12.2323 146.003 12.2323C146.903 12.2323 147.763 12.5835 148.428 13.2077C149.092 13.832 149.444 14.6904 149.484 15.5877V17.2264H144.439C141.076 17.2264 138.339 19.9576 138.339 23.313C138.339 26.1221 140.294 28.5021 142.914 29.2044C142.953 29.2044 142.992 29.2044 142.992 29.2435C143.11 29.2825 143.227 29.2825 143.344 29.3215C143.461 29.3605 143.618 29.3605 143.774 29.3995C143.813 29.3995 143.813 29.3995 143.853 29.3995C144.126 29.4385 144.439 29.4385 144.791 29.4385C145.651 29.4385 146.394 29.3215 146.903 29.1264C147.802 28.8533 148.623 28.3461 149.327 27.6828L149.484 27.5267V28.9703H153.042V26.6294V15.9389ZM145.143 19.8795H149.444V22.3766C149.444 24.2494 148.076 25.8881 146.238 26.2392C145.964 26.3172 145.69 26.3172 145.456 26.3172C144.83 26.3172 144.244 26.1612 143.657 25.81C143.501 25.732 143.344 25.6149 143.188 25.5369C142.992 25.3808 142.797 25.1858 142.64 24.9907L142.601 24.9517C142.171 24.4054 141.936 23.7422 141.936 23.0399C141.976 21.3231 143.383 19.8795 145.143 19.8795Z" fill="#646464"/>
</svg>
