<svg width="213" height="39" viewBox="0 0 213 39" fill="none" xmlns="http://www.w3.org/2000/svg">
<path d="M6.79901 6.64746L16.7126 0.911133L26.6261 6.64746L22.9064 8.66408L16.7126 5.09688L10.3577 8.66408L6.79901 6.64746ZM26.4736 13.7734L22.9064 11.7568L16.7126 15.324L10.3577 11.7568L6.79054 13.7734V17.9591L12.9929 21.5263V28.8133L16.5601 30.9824L20.1272 28.8133V21.6873L26.3296 18.1201V13.7819H26.4736V13.7734ZM26.4736 25.2461V21.0603L22.9064 23.2294V27.2542L26.4736 25.2461ZM29.1088 26.6357L22.9149 30.2029V34.3886L32.8369 28.6523V17.1881L29.1172 19.5097L29.1088 26.6357ZM25.5416 10.2147L29.1088 12.3838V16.5695L32.6759 14.4004V10.2147L29.1088 8.04554L25.5416 10.2147ZM12.9929 31.7534V35.9392L16.5601 38.1083L20.1272 35.9392V31.7534L16.5601 33.9226L12.9929 31.7534ZM6.79054 25.2461L10.3577 27.2627V23.0769L6.79054 20.9078V25.2461ZM12.9929 10.2147L16.5601 12.3838L20.2798 10.2147L16.7126 8.04554L12.9929 10.2147ZM4.16387 12.3838L7.88357 10.2147L4.16387 8.04554L0.59668 10.2147V14.4004L4.16387 16.5695V12.3838ZM4.16387 19.5097L0.59668 17.3406V28.8048L10.5187 34.5411V30.3554L4.31638 26.7882V19.5013L4.16387 19.5097Z" fill="#646464"/>
<path d="M61.3406 24.3136C61.3406 21.5259 59.79 20.1279 57.4684 19.1958C59.019 18.4248 60.2561 17.0267 60.2561 14.7051C60.2561 11.4514 57.6209 9.28223 53.4352 9.28223H43.8267V30.0499H53.7402C58.2395 29.889 61.3406 28.0333 61.3406 24.3136ZM55.6043 15.4761C55.6043 17.0267 54.3672 17.6452 52.3506 17.6452H48.1649V13.1545H52.6557C54.6807 13.1545 55.6043 13.934 55.6043 15.4761ZM56.8499 23.6951C56.8499 25.2457 55.6128 26.0167 53.5962 26.0167H48.1734V21.5259H53.4437C55.7653 21.365 56.8499 22.297 56.8499 23.6951Z" fill="#646464"/>
<path d="M83.8118 29.889V9.28223H79.3126V21.992L69.5515 9.28223H65.3743V30.0499H69.865V16.8742L79.9396 30.0499H83.8118V29.889Z" fill="#646464"/>
<path d="M106.587 24.3136C106.587 21.5259 105.036 20.1279 102.714 19.1958C104.265 18.4248 105.502 17.0267 105.502 14.7051C105.502 11.4514 102.867 9.28223 98.6813 9.28223H89.0728V30.0499H98.9863C103.486 29.889 106.587 28.0333 106.587 24.3136ZM101.011 15.4761C101.011 17.0267 99.7743 17.6452 97.7577 17.6452H93.572V13.1545H98.0628C99.9268 13.1545 101.011 13.934 101.011 15.4761ZM102.096 23.6951C102.096 25.2457 100.859 26.0167 98.8423 26.0167H93.4195V21.5259H98.6898C101.011 21.365 102.096 22.297 102.096 23.6951Z" fill="#646464"/>
<path d="M134.014 26.3301L131.693 24.0085C129.989 25.7116 128.286 26.6436 125.804 26.6436C121.77 26.6436 118.983 23.3899 118.983 19.2042C118.983 15.171 121.931 11.9257 125.804 11.9257C128.125 11.9257 129.989 13.0103 131.54 14.5609L133.862 11.7732C131.845 9.9176 129.523 8.51953 125.804 8.51953C119.601 8.51953 115.111 13.3238 115.111 19.2127C115.111 25.254 119.601 29.9058 125.651 29.9058C129.523 29.8888 131.845 28.4992 134.014 26.3301Z" fill="#646464"/>
<path d="M151.68 20.9076V29.5841H155.248V8.81641H151.68V17.4929H141.767V8.81641H138.2V29.5841H141.767V20.9076H151.68Z" fill="#646464"/>
<path d="M171.669 8.81641H168.262L159.12 29.7366H162.84L165.009 24.7798H174.77L176.939 29.7366H180.811L171.669 8.81641ZM173.533 21.3652H166.407L169.974 13.1547L173.533 21.3652Z" fill="#646464"/>
<path d="M184.845 8.81641V29.5841H188.403V8.81641H184.845Z" fill="#646464"/>
<path d="M208.705 23.2293L197.546 8.96892H194.292V29.7366H197.86V14.8578L209.324 29.5841H212.425V8.81641H208.858V23.2293H208.705Z" fill="#646464"/>
</svg>
