<svg width="72" height="72" viewBox="0 0 72 72" fill="none" xmlns="http://www.w3.org/2000/svg">
<path d="M36 72C55.8822 72 72 55.8822 72 36C72 16.1177 55.8822 0 36 0C16.1177 0 0 16.1177 0 36C0 55.8822 16.1177 72 36 72Z" fill="black"/>
<path opacity="0.95" d="M25.9356 59.9251C17.5803 55.3632 11.9026 46.4871 11.9026 36.297C11.9026 26.107 17.5555 17.2309 25.9108 12.6689C20.4563 19.0161 17.134 27.2723 17.134 36.297C17.134 45.3218 20.4563 53.6028 25.9356 59.9251Z" fill="white"/>
<path opacity="0.8" d="M57.421 42.8916C58.8861 42.8916 60.0738 39.8057 60.0738 35.999C60.0738 32.1924 58.8861 29.1064 57.421 29.1064C55.9558 29.1064 54.7681 32.1924 54.7681 35.999C54.7681 39.8057 55.9558 42.8916 57.421 42.8916Z" fill="white"/>
<g opacity="0.85">
<path d="M45.7944 12.6191C43.9349 12.6191 42.2489 14.3547 40.8853 17.3051C40.6373 17.8505 40.3894 18.4208 40.1663 19.0406C38.5795 23.3051 37.6125 29.3299 37.6125 36.0241C37.6125 42.7183 38.6043 48.7431 40.1663 53.0076C40.3894 53.6274 40.6373 54.1976 40.8853 54.7431C42.2489 57.6935 43.9597 59.429 45.7944 59.429C50.3316 59.429 54.001 48.9662 54.001 36.0241C54.001 23.0819 50.3316 12.6191 45.7944 12.6191ZM48.1001 49.5861C45.472 49.5861 43.3398 43.5117 43.3398 36.0241C43.3398 28.5365 45.472 22.4621 48.1001 22.4621C50.7282 22.4621 52.8605 28.5365 52.8605 36.0241C52.8605 43.5117 50.7282 49.5861 48.1001 49.5861Z" fill="white"/>
</g>
<path opacity="0.9" d="M39.547 53.8756C39.8445 54.5947 40.142 55.2889 40.4891 55.9087C38.9519 60.198 36.8941 62.8013 34.6627 62.8013C29.8528 62.8013 25.9602 50.8013 25.9602 36.0244C25.9602 21.2476 29.8528 9.24756 34.6627 9.24756C36.9189 9.24756 38.9519 11.8509 40.4891 16.1401C40.142 16.76 39.8445 17.4294 39.547 18.1732C38.9023 17.3798 38.1833 16.9335 37.4395 16.9335C34.1668 16.9335 31.5139 25.4872 31.5139 36.0492C31.5139 46.6112 34.1668 55.1649 37.4395 55.1649C38.1833 55.1649 38.8776 54.7186 39.547 53.9252V53.8756Z" fill="white"/>
</svg>
