<svg width="96" height="43" viewBox="0 0 96 43" fill="none" xmlns="http://www.w3.org/2000/svg">
<path d="M21.1031 42.6238C32.7602 42.6238 42.2063 33.1637 42.2063 21.5066C42.2063 9.84953 32.7602 0.39502 21.1031 0.39502C9.44609 0.39502 0 9.84334 0 21.5066C0 33.1699 9.4489 42.6238 21.1031 42.6238Z" fill="#646464"/>
<path d="M20.2653 12.2388V30.7486H26.1446V29.1009H21.9441V12.2388H20.2653Z" fill="white"/>
<path d="M14.3671 17.293C15.7667 17.293 16.9005 16.1585 16.9005 14.7649C16.9005 13.3713 15.7667 12.229 14.3671 12.229C12.9675 12.229 11.8409 13.364 11.8409 14.7649C11.8409 16.1659 12.9782 17.293 14.3671 17.293Z" fill="white"/>
<path d="M21.9445 3.84086C21.7288 3.83187 21.3079 3.82568 21.1051 3.82568C11.3696 3.82568 3.44507 11.7562 3.44507 21.5024C3.44507 26.2241 5.27731 30.6579 8.60806 33.9949C11.9557 37.3341 16.3944 39.1707 21.1051 39.1707C25.8158 39.1707 30.2556 37.3341 33.6027 33.9949C36.9306 30.6579 38.7634 26.2235 38.7634 21.5024V20.6957L38.0594 20.7013H26.1579V22.3417H37.0874V22.5795C36.5261 30.9142 29.5724 37.5219 21.1051 37.5219C16.8298 37.5219 12.8103 35.8568 9.78516 32.8318C6.75895 29.8062 5.09302 25.7811 5.09302 21.503C5.09302 17.2249 6.75895 13.1981 9.78516 10.1748C12.8097 7.14303 16.8298 5.47845 21.1051 5.47845C21.2984 5.47845 21.7523 5.48239 21.9445 5.48688V3.84086Z" fill="white"/>
<path d="M57.9436 7.74268H51.6406V35.0415H71.002V29.7262H57.9436V7.74268Z" fill="#646464"/>
<path d="M84.8683 24.6369H89.9981V29.408C89.0553 29.7701 87.2107 30.1321 85.4554 30.1321C79.7806 30.1321 77.8888 27.2471 77.8888 21.3899C77.8888 15.5327 79.6879 12.5161 85.3622 12.5161C88.5131 12.5161 90.3156 13.5077 91.8 15.3989L95.7207 11.7982C93.3333 8.37404 89.1441 7.3374 85.2273 7.3374C76.4021 7.3374 71.7633 12.1569 71.7633 21.3449C71.7633 30.5329 75.9503 35.4446 85.1829 35.4446C89.4132 35.4446 93.5558 34.3647 95.8095 32.7878V19.5448H84.8683V24.6375V24.6369Z" fill="#646464"/>
</svg>
