<svg width="271" height="54" viewBox="0 0 271 54" fill="none" xmlns="http://www.w3.org/2000/svg">
<path d="M0.424805 19.8813C3.10673 19.8952 5.78866 19.8604 8.47059 19.8743C9.65092 19.843 10.8208 20.2572 11.7287 21.0019C13.8379 22.9299 13.5167 27.0085 10.8173 28.2579C8.57186 29.1453 6.09247 28.6302 3.74229 28.752C3.74229 30.1789 3.74229 31.6057 3.74928 33.0325C2.64228 33.0221 1.5318 33.0186 0.424805 33.0151V19.8813ZM3.72134 22.5714C3.74579 23.786 3.74229 25.004 3.76325 26.222C5.51278 26.2499 7.28677 26.3299 8.99789 25.9018C9.25631 25.5991 9.51822 25.2998 9.78361 25.0005C9.64044 24.2697 9.46583 23.5424 9.26329 22.8255C7.43693 22.4705 5.57215 22.5888 3.72134 22.5714Z" fill="#646464"/>
<path d="M29.1578 19.8988C31.9306 19.8639 34.6998 19.8848 37.4725 19.8744C38.9217 19.8953 40.5281 20.1354 41.6141 21.1794C43.0459 22.909 42.344 25.7244 40.3465 26.7093C40.7935 27.1269 41.471 27.4297 41.5932 28.0909C41.9564 29.73 41.7957 31.4631 42.4522 33.043C41.209 33.0152 39.9694 33.0187 38.7262 33.0187C38.583 31.5396 38.5271 30.0502 38.1884 28.5955C36.362 27.8751 34.3645 28.2092 32.4544 28.15C32.4718 29.7752 32.4614 31.4004 32.4683 33.0256C31.3579 33.0187 30.2509 33.0187 29.1439 33.0291C29.1578 28.6512 29.1334 24.2767 29.1578 19.8988ZM32.4683 22.4949C32.4648 23.4798 32.4614 24.4646 32.4509 25.453C34.5601 25.3834 36.7601 25.7418 38.7646 24.9031C38.7611 24.2697 38.8798 23.6085 38.6319 23.0099C36.7392 22.0425 34.5042 22.6585 32.4683 22.4949Z" fill="#646464"/>
<path d="M55.4254 19.8812V22.4912H50.973C50.973 26.0027 50.973 29.5141 50.973 33.0289C49.866 33.0185 48.7555 33.0185 47.6485 33.0255C47.6555 29.5141 47.6485 26.0027 47.6485 22.4912H43.1961V19.8812H55.4254Z" fill="#646464"/>
<path d="M64.4628 21.583C66.5022 19.5646 69.6172 19.2444 72.327 19.655C73.8775 19.9996 75.5153 20.5459 76.5699 21.7953C77.2928 22.6096 77.6036 23.6745 77.9772 24.6698C76.776 24.6698 75.5747 24.6698 74.3769 24.635C73.7378 22.975 72.0058 22.0772 70.2702 22.2199C68.8035 22.0563 67.5848 22.9646 66.6279 23.9529C65.8213 25.8044 65.9156 27.9724 67.2181 29.5768C67.6057 29.8169 67.9899 30.0605 68.3705 30.318C69.8581 30.7008 71.5273 30.767 72.9102 30.0048C73.6575 29.4967 74.0591 28.658 74.4851 27.8924C75.6585 27.882 76.8283 27.8854 78.0052 27.8854C77.663 29.4619 76.8842 31.0071 75.4839 31.8945C72.6693 33.8016 68.8838 33.7215 65.8562 32.3539C61.9974 30.3841 61.2501 24.4471 64.4628 21.583Z" fill="#646464"/>
<path d="M92.2004 19.8814C96.0976 19.8744 99.9948 19.8918 103.895 19.8744C103.881 20.7444 103.878 21.6179 103.874 22.4914H95.5004C95.4935 23.2501 95.4934 24.0122 95.483 24.7709C97.9938 24.7256 100.505 24.7778 103.015 24.7326C103.005 25.6096 103.001 26.4865 103.001 27.3635H95.4969C95.4969 28.324 95.4969 29.2845 95.4934 30.245C98.2941 30.2207 101.091 30.2416 103.892 30.2311C103.881 31.1603 103.874 32.086 103.871 33.0152C99.9738 33.0221 96.0801 33.0221 92.1829 33.0152C92.1829 28.6372 92.155 24.2593 92.2004 19.8814Z" fill="#646464"/>
<path d="M141.68 19.8813C146.796 19.8813 151.915 19.8813 157.031 19.8813C157.824 22.8498 158.791 25.7661 159.594 28.7276C160.621 25.7696 161.669 22.8254 162.72 19.8778C163.788 19.8778 164.86 19.8778 165.929 19.8778C166.959 22.8115 167.892 25.7835 168.974 28.6998C169.837 25.7626 170.689 22.8254 171.628 19.9091C172.756 19.8778 173.884 19.8813 175.012 19.8639C173.674 24.2731 172.204 28.6406 170.779 33.0255C169.662 33.0186 168.548 33.0186 167.434 33.0255C166.379 29.8134 165.314 26.6048 164.33 23.3683C163.237 26.6013 162.074 29.8065 160.977 33.0325C159.898 33.022 158.819 33.0151 157.74 32.9907C157.07 30.8922 156.41 28.7903 155.757 26.6883C155.138 24.6664 154.318 22.7001 153.955 20.6121C153.941 21.2385 153.913 21.8649 153.892 22.4913H149.45C149.45 26.0027 149.446 29.5141 149.453 33.0255C148.343 33.0186 147.236 33.0186 146.129 33.029C146.136 29.5141 146.132 26.0027 146.132 22.4913H141.68C141.676 21.6213 141.676 20.7513 141.68 19.8813Z" fill="#646464"/>
<path d="M181.088 19.8047C183.868 19.1331 187.004 19.662 189.228 21.5134C191.659 23.6607 191.896 27.6558 190.189 30.3076C187.224 33.9652 181.259 34.2506 177.652 31.383C175.169 29.1975 174.83 25.1153 176.751 22.4705C177.743 21.0123 179.436 20.2537 181.088 19.8047ZM181.797 22.5331C178.556 23.4901 178.263 28.4075 181.004 30.0919C182.75 30.948 185.097 30.8366 186.55 29.462C187.943 27.9864 188.017 25.5503 186.948 23.8764C185.778 22.373 183.557 21.8649 181.797 22.5331Z" fill="#646464"/>
<path d="M193.538 19.8812C196.541 19.8986 199.547 19.8499 202.551 19.8916C204.073 19.996 205.868 20.5041 206.525 22.0319C207.174 23.765 206.354 25.7069 204.852 26.7022C205.316 27.2242 205.935 27.7149 206.046 28.4492C206.284 29.9734 206.333 31.5325 206.724 33.0359C205.488 33.0185 204.258 33.022 203.026 32.9768C202.893 31.3376 203.308 29.361 201.828 28.2056C200.166 28.1499 198.5 28.1429 196.838 28.1325C196.866 29.7681 196.852 31.4003 196.862 33.0359C195.752 33.015 194.645 33.0185 193.538 33.015V19.8812ZM196.855 22.4947V25.4459C198.647 25.3797 200.473 25.6477 202.236 25.251C203.528 25.07 203.549 22.895 202.282 22.6618C200.494 22.3312 198.66 22.54 196.855 22.4947Z" fill="#646464"/>
<path d="M217.902 19.8778C219.302 19.8778 220.703 19.8778 222.103 19.8882C220.273 21.6526 218.279 23.2361 216.432 24.9831C218.614 27.6384 220.786 30.3076 222.906 33.0151C221.597 33.0186 220.294 33.0186 218.988 33.0255C217.291 31.0732 215.733 29.0026 214.134 26.9667C213.551 27.4644 212.971 27.969 212.391 28.4701C212.395 29.9874 212.395 31.5013 212.395 33.0186C211.316 33.0186 210.24 33.0186 209.168 33.0151C209.168 28.6372 209.144 24.2592 209.182 19.8847C210.251 19.8778 211.323 19.8847 212.395 19.8847V24.9065C214.242 23.243 216.107 21.6004 217.902 19.8813V19.8778Z" fill="#646464"/>
<path d="M19.0726 19.9057C20.1691 19.8779 21.2656 19.8813 22.3656 19.8674C24.3561 24.2628 26.2907 28.6825 28.3999 33.0221C27.1568 33.0221 25.9136 33.0221 24.6704 32.9873C24.2583 32.093 23.8777 31.1847 23.5529 30.2555C21.6043 30.2207 19.6592 30.2381 17.7106 30.2346C17.2846 31.1464 16.8551 32.0616 16.4989 33.0047C15.2941 33.0187 14.0858 33.0221 12.8811 33.0117C13.7611 31.1777 14.7528 29.3959 15.5281 27.5097C16.436 25.3903 17.5954 23.3927 18.4964 21.2699C18.6919 20.8175 18.884 20.3616 19.0726 19.9057ZM20.5532 23.5946C19.8792 24.8753 19.3624 26.2221 18.7897 27.548C19.9595 27.534 21.1294 27.5375 22.3027 27.5306C21.6707 26.2395 21.1469 24.9031 20.5532 23.5946Z" fill="#646464"/>
<path d="M56.927 19.8848C58.0305 19.8779 59.1374 19.8848 60.2409 19.8744C60.206 24.2523 60.241 28.6338 60.2235 33.0152C59.12 33.0187 58.0165 33.0187 56.913 33.0152C56.913 28.6372 56.8885 24.2628 56.927 19.8848Z" fill="#646464"/>
<path d="M80.1389 19.9056C81.2459 19.8778 82.3529 19.8847 83.4599 19.8569C83.4389 23.3161 83.4494 26.7718 83.4529 30.231C85.6913 30.238 87.9333 30.2345 90.1717 30.2345V33.0186C86.8228 33.0255 83.4773 33.0081 80.1284 33.029C80.1389 28.6545 80.1214 24.2801 80.1389 19.9056Z" fill="#646464"/>
<path d="M112.695 32.9941C112.692 28.6232 112.695 24.2522 112.695 19.8812H116.757C118.897 22.9541 121.104 25.9818 123.263 29.0442C123.263 25.9887 123.238 22.9367 123.276 19.8847C124.345 19.8777 125.417 19.8847 126.489 19.8847V33.022C125.138 33.0255 123.783 33.0324 122.435 32.9872C120.263 29.8342 118.007 26.7404 115.817 23.6014C115.866 26.7474 115.821 29.8969 115.845 33.0429C114.794 33.0185 113.747 33.022 112.695 32.9976V32.9941Z" fill="#646464"/>
<path d="M129.461 32.9977C129.454 28.6267 129.458 24.2522 129.458 19.8813C133.33 19.8708 137.206 19.9021 141.079 19.8639C141.069 20.7374 141.065 21.6143 141.065 22.4913H132.695C132.684 23.2465 132.684 24.0017 132.67 24.7603C135.185 24.7429 137.699 24.7638 140.213 24.7464C140.199 25.6164 140.192 26.4899 140.192 27.3634H132.688C132.684 28.3205 132.688 29.274 132.691 30.231C135.481 30.2415 138.272 30.2241 141.062 30.2415C141.062 31.1706 141.069 32.0998 141.072 33.029C137.203 32.9942 133.33 33.0499 129.461 32.9977Z" fill="#646464"/>
<path d="M239.417 0.250265C240.496 -0.0629422 241.621 -0.0594622 242.724 0.135422C243.608 0.984563 244.547 2.01119 244.453 3.33362C244.544 5.57827 241.851 7.41228 239.822 6.36825C238.488 5.80796 237.556 4.37764 237.807 2.91601C237.87 1.7989 238.726 1.0298 239.417 0.250265Z" fill="#646464"/>
<path d="M247.103 0.302331C249.055 -0.682532 251.465 0.932226 251.685 2.9994C252.024 5.01784 250.078 7.14766 247.997 6.74049C246.15 6.58736 244.805 4.71508 245.06 2.92979C245.231 1.77789 246.042 0.772143 247.103 0.302331Z" fill="#646464"/>
<path d="M231.906 2.96793C232.72 2.08746 234.005 2.12227 235.115 2.08398C236.522 2.77304 237.787 4.15463 237.493 5.83203C237.444 8.36554 233.917 9.82369 232.094 8.04885C230.513 6.86562 230.436 4.27296 231.906 2.96793Z" fill="#646464"/>
<path d="M254.134 2.56848C256.428 1.66366 259.155 4.01271 258.488 6.40701C258.16 8.60294 255.367 9.98454 253.495 8.6447C251.075 7.38491 251.529 3.33758 254.134 2.56848Z" fill="#646464"/>
<path d="M226.794 6.61838C228.778 5.62307 231.453 7.03251 231.578 9.28412C232.074 11.9916 228.488 14.1876 226.34 12.4023C224.248 11.0972 224.549 7.5928 226.794 6.61838Z" fill="#646464"/>
<path d="M259.699 7.02261C261.466 6.18391 263.736 7.26273 264.246 9.13154C265.098 11.3135 262.905 13.9897 260.576 13.4608C259.095 13.3738 257.862 12.0896 257.684 10.6558C257.398 9.17678 258.295 7.57594 259.699 7.02261Z" fill="#646464"/>
<path d="M240.667 10.2449C241.191 9.68109 242.026 9.67065 242.731 9.49316C243.388 10.1648 244.379 10.9165 244.062 11.9919C243.89 13.5544 241.725 14.1774 240.66 13.109C239.944 12.3608 239.798 10.9374 240.667 10.2449Z" fill="#646464"/>
<path d="M244.494 11.3968C244.955 10.1996 246.006 9.53493 247.274 9.49316C247.927 10.1683 248.919 10.9165 248.601 11.9884C248.43 13.544 246.289 14.1669 245.21 13.1264C244.847 12.6078 244.721 11.9745 244.494 11.3968Z" fill="#646464"/>
<path d="M235.776 12.7605C235.866 11.7478 236.862 11.3372 237.619 10.8848C238.126 11.0971 238.65 11.2815 239.125 11.5669C240.204 12.5204 239.778 14.6293 238.349 14.9878C237.022 15.5168 235.385 14.163 235.776 12.7605Z" fill="#646464"/>
<path d="M248.999 13.4295C248.856 12.3507 249.565 10.9795 250.811 11.0248C252.351 10.7568 253.518 12.6395 252.763 13.9411C252.421 14.9886 251.178 15.0095 250.27 15.1173C249.82 14.5814 249.222 14.1186 248.999 13.4295Z" fill="#646464"/>
<path d="M262.637 13.7946C263.73 13.0429 265.011 12.6009 266.349 12.8863C267.079 13.4744 268.029 13.9546 268.301 14.9291C268.93 16.5717 268.154 18.7293 266.419 19.3209C264.372 20.2745 261.736 18.4022 261.844 16.1819C261.886 15.3258 262.284 14.5567 262.637 13.7946Z" fill="#646464"/>
<path d="M232.626 14.4313C233.202 13.7144 234.197 13.9093 235.008 13.8815C235.399 14.4209 235.975 14.9081 236.034 15.6146C236.108 16.4463 235.542 17.118 235.126 17.7722C234.362 17.7479 233.506 17.9462 232.843 17.466C231.886 16.7804 231.781 15.2492 232.626 14.4313Z" fill="#646464"/>
<path d="M253.711 13.8989C255.272 13.0011 257.405 14.668 256.609 16.3663C256.204 17.8871 254.074 18.1307 253.117 17.0066C252.394 16.0531 252.52 14.414 253.711 13.8989Z" fill="#646464"/>
<path d="M241.104 18.3401C240.992 17.564 241.76 17.1151 242.434 17.042C242.906 17.3656 243.192 17.8842 243.527 18.3401C243.115 18.6707 242.714 19.0082 242.319 19.3493C241.897 19.0361 241.348 18.8308 241.104 18.3401Z" fill="#646464"/>
<path d="M243.591 17.7096C244.045 17.3929 244.523 17.1076 245.022 16.8535C245.34 17.3999 245.724 17.9393 245.822 18.5831C245.33 18.9555 244.722 19.1086 244.16 19.3313C243.961 18.7919 243.709 18.2699 243.591 17.7096Z" fill="#646464"/>
<path d="M255.229 19.6207C255.596 18.8621 255.767 17.738 256.759 17.5536C257.419 17.3308 258.1 17.6406 258.746 17.7937C259.001 18.2774 259.259 18.7577 259.525 19.2379C259.294 20.1358 258.809 20.9258 258.138 21.5591C257.45 21.4165 256.64 21.4791 256.088 20.9814C255.746 20.5638 255.502 20.0766 255.229 19.6207Z" fill="#646464"/>
<path d="M239.149 18.0333C239.533 17.9776 239.924 17.9219 240.315 17.8662C240.577 18.2455 240.842 18.6249 241.108 19.0042C240.685 19.4044 240.371 20.0065 239.746 20.1004C239.334 19.7977 238.992 19.4218 238.635 19.0668C238.761 18.8093 239.02 18.2908 239.149 18.0333Z" fill="#646464"/>
<path d="M245.762 19.1716C246.066 18.3816 246.677 17.8109 247.543 17.71C247.795 18.2389 248.043 18.7749 248.273 19.3178C247.921 19.5474 247.564 19.7597 247.198 19.9546C246.649 19.8746 246.234 19.4222 245.762 19.1716Z" fill="#646464"/>
<path d="M236.612 20.3758C237.038 19.718 237.705 19.3944 238.47 19.3213C238.913 20.1147 238.969 20.9465 238.309 21.639C237.887 21.4859 237.468 21.3363 237.052 21.1866C236.944 20.9813 236.724 20.5776 236.612 20.3758Z" fill="#646464"/>
<path d="M247.826 20.1041C248.346 19.603 248.968 19.248 249.705 19.2236C249.883 19.5786 250.061 19.937 250.239 20.2955C250.092 20.5913 249.795 21.1794 249.649 21.4752C248.741 21.4544 248.067 20.9915 247.826 20.1041Z" fill="#646464"/>
<path d="M264.065 22.5365C264.285 21.1166 265.591 20.3266 266.75 19.7002C267.969 19.9264 269.464 20.0969 270.124 21.308C271.031 22.4773 270.532 23.9703 270.169 25.2405C269.404 25.8808 268.538 26.5142 267.494 26.5351C265.413 26.7474 263.53 24.548 264.065 22.5365Z" fill="#646464"/>
<path d="M249.538 21.7294C250.222 21.5658 251.225 20.9081 251.546 21.9103C252.29 23.0518 250.519 23.6817 249.653 23.2432C249.611 22.7386 249.573 22.234 249.538 21.7294Z" fill="#646464"/>
<path d="M258.218 21.8438C258.721 21.889 259.231 21.9308 259.744 21.9725C260.066 22.2996 260.387 22.6233 260.722 22.9469C260.893 24.0223 260.705 25.4213 259.493 25.7832C258.389 26.2287 257.436 25.3378 256.78 24.5721C256.821 24.0258 256.874 23.4829 256.926 22.94C257.352 22.5711 257.782 22.2057 258.218 21.8438Z" fill="#646464"/>
<path d="M250.149 25.0391C250.439 24.5484 250.652 23.9742 251.155 23.6436C251.692 23.8315 252.195 24.1064 252.709 24.3674C252.443 24.8964 252.188 25.4323 251.853 25.9195C251.127 26.017 250.652 25.4462 250.149 25.0391Z" fill="#646464"/>
<path d="M250.372 27.3603C250.183 26.5042 251.147 26.2397 251.81 26.3163C252.565 26.633 252.39 27.496 252.47 28.1433C251.723 28.3104 250.319 28.4844 250.372 27.3603Z" fill="#646464"/>
<path d="M256.93 27.8614C257.185 26.72 258.554 26.2362 259.584 26.5807C260.416 26.8348 260.618 27.7709 261.02 28.4322C260.625 29.163 260.346 30.1409 259.438 30.3845C257.982 30.9935 256.323 29.3022 256.93 27.8614Z" fill="#646464"/>
<path d="M265.203 27.7186C266.394 27.2661 267.902 26.7546 269.006 27.6838C270.553 28.7173 271.105 31.0038 269.914 32.5106C268.601 34.6509 264.854 34.2054 264.155 31.7589C263.425 30.3286 264.208 28.7835 265.203 27.7186Z" fill="#646464"/>
<path d="M249.352 29.4485C249.708 29.1597 250.075 28.8812 250.449 28.6133C250.99 28.7281 251.448 29.0622 251.846 29.4346C251.737 29.8313 251.633 30.2246 251.531 30.6248C250.498 31.1537 249.75 30.3255 249.352 29.4485Z" fill="#646464"/>
<path d="M236.851 32.1902C236.599 31.4002 237.504 31.0383 237.944 30.5615C238.335 30.9165 238.719 31.2819 239.072 31.6786C238.852 32.2111 238.66 33.0776 237.905 32.9349C237.406 33.0428 237.109 32.5104 236.851 32.1902Z" fill="#646464"/>
<path d="M248.047 31.3968C248.309 31.195 248.825 30.7878 249.084 30.5859C249.601 30.927 250.407 31.1393 250.32 31.9188C250.096 32.326 249.852 32.7157 249.58 33.0881C248.79 32.7854 248.155 32.2842 248.047 31.3968Z" fill="#646464"/>
<path d="M255.435 31.9995C256.095 31.5018 256.78 30.6527 257.712 30.8824C258.91 31.0424 259.752 32.3301 259.332 33.482C259.032 34.9123 256.982 35.3508 256.008 34.3207C255.331 33.7465 255.509 32.779 255.435 31.9995Z" fill="#646464"/>
<path d="M239.273 32.5695C239.654 32.3746 240.08 32.2842 240.488 32.1484C241.079 32.9036 241.086 33.7145 240.471 34.4488C240.132 34.4035 239.455 34.3096 239.116 34.2608C239.092 33.6971 238.683 32.9732 239.273 32.5695Z" fill="#646464"/>
<path d="M246.555 32.5139C247.435 31.5639 248.731 32.9246 248.182 33.9338C247.669 34.1844 247.107 34.3166 246.566 34.4872C246.377 33.8573 245.85 33.029 246.555 32.5139Z" fill="#646464"/>
<path d="M241.269 33.5506C241.845 33.22 242.533 32.7502 243.105 33.3905C243.957 33.9508 242.976 34.8974 242.477 35.3359C242.082 35.1201 241.691 34.9043 241.3 34.6921C241.293 34.4067 241.276 33.836 241.269 33.5506Z" fill="#646464"/>
<path d="M243.813 33.7948C243.96 33.057 244.882 33.1406 245.448 32.9805C245.566 33.245 245.807 33.7739 245.929 34.0384C245.856 34.2785 245.709 34.7553 245.636 34.9954C245.151 35.0024 244.665 35.0546 244.187 35.0059C244.012 34.637 243.548 34.2263 243.813 33.7948Z" fill="#646464"/>
<path d="M263.534 34.4011C265.238 33.4997 267.651 34.6203 268.084 36.4961C268.471 38.0656 267.752 39.9797 266.17 40.5921C264.208 41.5457 261.627 39.9727 261.571 37.8081C261.309 36.3708 262.249 34.9788 263.534 34.4011Z" fill="#646464"/>
<path d="M232.018 36.0085C232.552 35.4482 233.055 34.7243 233.89 34.6025C234.756 34.613 235.678 35.0167 236.044 35.8414C236.17 36.4435 236.097 37.0595 236.097 37.665C235.339 38.2357 234.389 39.0222 233.39 38.5385C232.273 38.2323 232.158 36.962 232.018 36.0085Z" fill="#646464"/>
<path d="M252.764 36.8289C252.526 35.2872 254.468 34.0761 255.764 34.9322C256.93 35.3255 256.675 36.7279 256.703 37.685C256.029 38.2174 255.243 38.5654 254.419 38.7812C253.749 38.2661 252.715 37.8276 252.764 36.8289Z" fill="#646464"/>
<path d="M236.508 37.8039C237.224 37.3132 238.271 37.1566 238.977 37.7656C239.745 38.2041 239.717 39.1576 239.916 39.9093C239.319 40.6227 238.708 41.6285 237.618 41.4301C235.809 41.3779 235.244 38.8862 236.508 37.8039Z" fill="#646464"/>
<path d="M249.729 37.8425C250.26 37.3065 251.056 37.3727 251.744 37.2578C252.492 37.8877 253.03 38.6846 253.229 39.6486C252.75 40.2924 252.356 41.1764 251.483 41.3469C250.54 41.5418 249.789 40.7692 249.073 40.2994C249.146 39.4677 249.066 38.4689 249.729 37.8425Z" fill="#646464"/>
<path d="M240.28 41.5764C239.578 40.073 241.432 38.0789 242.962 38.9768C244.331 39.3352 244.236 40.9082 244.027 42.0044C243.318 42.3559 242.595 42.6831 241.855 42.965C241.306 42.5334 240.653 42.1819 240.28 41.5764Z" fill="#646464"/>
<path d="M245.378 39.3457C246.052 38.5696 247.148 38.8272 248.028 39.0081C248.681 39.8747 248.783 40.9222 248.591 41.9627C247.892 42.349 247.176 42.9754 246.321 42.7423C244.816 42.4882 244.187 40.3201 245.378 39.3457Z" fill="#646464"/>
<path d="M226.42 39.7078C228.864 38.6185 231.77 41.0824 230.97 43.6612C230.492 46.2469 226.668 47.0229 225.142 44.9453C223.696 43.3062 224.412 40.5222 226.42 39.7078Z" fill="#646464"/>
<path d="M257.936 41.0302C258.938 40.4629 260.052 39.8017 261.253 40.094C263.666 40.5569 264.836 44.0683 262.863 45.7039C261.477 47.2004 258.749 46.9393 257.737 45.1541C256.804 43.8908 257.265 42.29 257.936 41.0302Z" fill="#646464"/>
<path d="M232.087 44.162C234.532 42.8465 237.584 45.4635 236.749 48.0492C236.313 50.541 232.611 51.5397 231.082 49.4691C229.618 47.8961 230.048 45.0285 232.087 44.162Z" fill="#646464"/>
<path d="M251.329 46.9598C251.514 45.3763 252.998 44.1514 254.58 44.1757C256.613 44.0818 258.376 46.3194 257.824 48.2648C257.562 49.6325 256.333 50.7705 254.94 50.9132C254 51.0315 253.148 50.5303 252.31 50.1928C251.717 49.2253 251.004 48.1534 251.329 46.9598Z" fill="#646464"/>
<path d="M238.363 46.754C239.519 46.232 240.867 46.0023 242.044 46.6252C244.373 47.7632 244.251 51.6018 241.851 52.5831C240.86 53.1922 239.707 52.8685 238.67 52.5831C238.007 51.8175 237.092 51.0797 237.095 49.9731C236.928 48.7411 237.616 47.6588 238.363 46.7505V46.754Z" fill="#646464"/>
<path d="M244.275 48.8116C244.994 47.4265 246.328 46.0728 248.036 46.3268C250.546 46.5739 251.982 49.9809 250.229 51.8602C249.181 53.3253 247.17 53.2035 245.678 52.5771C244.61 51.6026 244.236 50.2176 244.275 48.8116Z" fill="#646464"/>
</svg>
