<svg width="270" height="80" viewBox="0 0 270 80" fill="none" xmlns="http://www.w3.org/2000/svg">
<path d="M260 0H10C4.47715 0 0 4.47715 0 10V70C0 75.5229 4.47715 80 10 80H260C265.523 80 270 75.5229 270 70V10C270 4.47715 265.523 0 260 0Z" fill="black"/>
<path d="M260 1.6C264.64 1.6 268.4 5.36 268.4 10V70C268.4 74.64 264.64 78.4 260 78.4H10C5.36 78.4 1.6 74.64 1.6 70V10C1.6 5.36 5.36 1.6 10 1.6H260ZM260 0H10C4.5 0 0 4.5 0 10V70C0 75.5 4.5 80 10 80H260C265.5 80 270 75.5 270 70V10C270 4.5 265.5 0 260 0Z" fill="#A6A6A6"/>
<path d="M94.84 20.4807C94.84 22.1607 94.34 23.5007 93.34 24.4807C92.22 25.6607 90.76 26.2607 88.94 26.2607C87.12 26.2607 85.72 25.6607 84.52 24.4607C83.32 23.2607 82.72 21.7607 82.72 20.0007C82.72 18.2407 83.32 16.7407 84.52 15.5407C85.72 14.3407 87.2 13.7207 88.94 13.7207C89.82 13.7207 90.66 13.8807 91.44 14.1807C92.22 14.5007 92.86 14.9407 93.36 15.5007L92.26 16.6007C91.9 16.1607 91.42 15.8007 90.82 15.5607C90.24 15.3007 89.6 15.1807 88.94 15.1807C87.64 15.1807 86.52 15.6407 85.62 16.5407C84.72 17.4607 84.28 18.6007 84.28 19.9807C84.28 21.3607 84.72 22.5007 85.62 23.4207C86.52 24.3207 87.62 24.7807 88.94 24.7807C90.14 24.7807 91.12 24.4407 91.92 23.7807C92.72 23.1207 93.18 22.1807 93.3 21.0207H88.94V19.5807H94.76C94.82 19.9007 94.84 20.2007 94.84 20.4807Z" fill="white" stroke="white" stroke-width="0.2" stroke-miterlimit="10"/>
<path d="M104.06 14V15.48H98.5999V19.28H103.52V20.72H98.5999V24.52H104.06V26H97.0599V14H104.06Z" fill="white" stroke="white" stroke-width="0.2" stroke-miterlimit="10"/>
<path d="M110.56 15.48V26H109.02V15.48H105.66V14H113.9V15.48H110.54H110.56Z" fill="white" stroke="white" stroke-width="0.2" stroke-miterlimit="10"/>
<path d="M121.42 26H119.88V14H121.42V26Z" fill="white" stroke="white" stroke-width="0.2" stroke-miterlimit="10"/>
<path d="M128.26 15.48V26H126.72V15.48H123.36V14H131.6V15.48H128.24H128.26Z" fill="white" stroke="white" stroke-width="0.2" stroke-miterlimit="10"/>
<path d="M148.98 20.0007C148.98 21.7807 148.38 23.2607 147.2 24.4607C146 25.6607 144.54 26.2607 142.8 26.2607C141.06 26.2607 139.6 25.6607 138.4 24.4607C137.22 23.2607 136.62 21.7807 136.62 20.0007C136.62 18.2207 137.22 16.7407 138.4 15.5407C139.58 14.3407 141.04 13.7207 142.8 13.7207C144.56 13.7207 146 14.3207 147.2 15.5407C148.38 16.7407 148.98 18.2207 148.98 19.9807V20.0007ZM138.22 20.0007C138.22 21.3807 138.66 22.5407 139.52 23.4407C140.4 24.3407 141.5 24.8007 142.8 24.8007C144.1 24.8007 145.2 24.3407 146.06 23.4407C146.94 22.5407 147.38 21.4007 147.38 20.0007C147.38 18.6007 146.94 17.4607 146.06 16.5607C145.18 15.6607 144.1 15.2007 142.8 15.2007C141.5 15.2007 140.4 15.6607 139.52 16.5607C138.64 17.4607 138.22 18.6207 138.22 20.0007Z" fill="white" stroke="white" stroke-width="0.2" stroke-miterlimit="10"/>
<path d="M152.68 26H151.14V14H153.02L158.86 23.34H158.92L158.86 21.02V14H160.4V26H158.8L152.7 16.22H152.64L152.7 18.54V26.02L152.68 26Z" fill="white" stroke="white" stroke-width="0.2" stroke-miterlimit="10"/>
<path d="M136.28 43.5001C131.58 43.5001 127.74 47.0801 127.74 52.0001C127.74 56.9201 131.58 60.5001 136.28 60.5001C140.98 60.5001 144.82 56.9001 144.82 52.0001C144.82 47.1001 140.98 43.5001 136.28 43.5001ZM136.28 57.1601C133.7 57.1601 131.48 55.0401 131.48 52.0001C131.48 48.9601 133.7 46.8401 136.28 46.8401C138.86 46.8401 141.08 48.9401 141.08 52.0001C141.08 55.0601 138.86 57.1601 136.28 57.1601ZM117.66 43.5001C112.96 43.5001 109.12 47.0801 109.12 52.0001C109.12 56.9201 112.96 60.5001 117.66 60.5001C122.36 60.5001 126.2 56.9001 126.2 52.0001C126.2 47.1001 122.36 43.5001 117.66 43.5001ZM117.66 57.1601C115.08 57.1601 112.86 55.0401 112.86 52.0001C112.86 48.9601 115.08 46.8401 117.66 46.8401C120.24 46.8401 122.46 48.9401 122.46 52.0001C122.46 55.0601 120.24 57.1601 117.66 57.1601ZM95.5 46.1001V49.7001H104.14C103.88 51.7201 103.2 53.2201 102.18 54.2401C100.92 55.5001 98.96 56.8801 95.52 56.8801C90.2 56.8801 86.04 52.6001 86.04 47.2801C86.04 41.9601 90.2 37.6801 95.52 37.6801C98.38 37.6801 100.48 38.8001 102.02 40.2601L104.56 37.7201C102.4 35.6601 99.54 34.0801 95.5 34.0801C88.22 34.0801 82.1 40.0001 82.1 47.3001C82.1 54.6001 88.22 60.5201 95.5 60.5201C99.44 60.5201 102.4 59.2401 104.72 56.8201C107.1 54.4401 107.84 51.0801 107.84 48.3801C107.84 47.5401 107.78 46.7601 107.64 46.1201H95.5V46.1001ZM186.12 48.9001C185.42 47.0001 183.26 43.4801 178.84 43.4801C174.42 43.4801 170.82 46.9201 170.82 51.9801C170.82 56.7401 174.42 60.4801 179.26 60.4801C183.16 60.4801 185.42 58.1001 186.34 56.7201L183.44 54.7801C182.48 56.2001 181.16 57.1401 179.26 57.1401C177.36 57.1401 176 56.2801 175.14 54.5601L186.52 49.8601L186.14 48.9001H186.12ZM174.52 51.7401C174.42 48.4601 177.06 46.7801 178.96 46.7801C180.44 46.7801 181.7 47.5201 182.12 48.5801L174.52 51.7401ZM165.28 59.9801H169.02V34.9801H165.28V59.9801ZM159.16 45.3801H159.04C158.2 44.3801 156.6 43.4801 154.56 43.4801C150.3 43.4801 146.4 47.2201 146.4 52.0201C146.4 56.8201 150.3 60.5001 154.56 60.5001C156.58 60.5001 158.2 59.6001 159.04 58.5601H159.16V59.7801C159.16 63.0401 157.42 64.7801 154.62 64.7801C152.34 64.7801 150.92 63.1401 150.34 61.7601L147.08 63.1201C148.02 65.3801 150.5 68.1401 154.62 68.1401C159 68.1401 162.7 65.5601 162.7 59.2801V44.0001H159.16V45.3801ZM154.88 57.1401C152.3 57.1401 150.14 54.9801 150.14 52.0201C150.14 49.0601 152.3 46.8401 154.88 46.8401C157.46 46.8401 159.42 49.0401 159.42 52.0201C159.42 55.0001 157.42 57.1401 154.88 57.1401ZM203.64 34.9801H194.7V59.9801H198.44V50.5001H203.66C207.8 50.5001 211.86 47.5001 211.86 42.7401C211.86 37.9801 207.8 34.9801 203.66 34.9801H203.64ZM203.74 47.0401H198.44V38.4601H203.74C206.54 38.4601 208.12 40.7801 208.12 42.7401C208.12 44.7001 206.54 47.0201 203.74 47.0201V47.0401ZM226.8 43.4401C224.1 43.4401 221.3 44.6401 220.14 47.2601L223.46 48.6401C224.16 47.2601 225.48 46.8001 226.86 46.8001C228.78 46.8001 230.76 47.9601 230.78 50.0201V50.2801C230.1 49.9001 228.66 49.3201 226.88 49.3201C223.3 49.3201 219.68 51.2801 219.68 54.9401C219.68 58.2801 222.6 60.4401 225.88 60.4401C228.38 60.4401 229.78 59.3201 230.64 58.0001H230.76V59.9201H234.36V50.3401C234.36 45.9001 231.04 43.4201 226.76 43.4201L226.8 43.4401ZM226.34 57.1401C225.12 57.1401 223.42 56.5201 223.42 55.0201C223.42 53.1001 225.54 52.3601 227.38 52.3601C229.02 52.3601 229.8 52.7201 230.78 53.2001C230.5 55.5201 228.5 57.1601 226.34 57.1601V57.1401ZM247.5 43.9801L243.22 54.8201H243.1L238.66 43.9801H234.64L241.3 59.1401L237.5 67.5601H241.4L251.66 43.9801H247.52H247.5ZM213.88 59.9801H217.62V34.9801H213.88V59.9801Z" fill="white"/>
<path d="M41.4399 38.8384L20.1399 61.4384C20.7999 63.8984 23.0399 65.6984 25.6999 65.6984C26.7599 65.6984 27.7599 65.4184 28.6199 64.8984L28.6799 64.8584L52.6399 51.0384L41.4199 38.8184L41.4399 38.8384Z" fill="#EA4335"/>
<path d="M62.98 34.9985H62.96L52.62 28.9785L40.96 39.3585L52.66 51.0585L62.96 45.1185C64.76 44.1385 65.98 42.2385 65.98 40.0585C65.98 37.8785 64.78 35.9785 62.98 35.0185V34.9985Z" fill="#FBBC04"/>
<path d="M20.1399 18.5586C20.0199 19.0386 19.9399 19.5186 19.9399 20.0386V59.9786C19.9399 60.4986 19.9999 60.9786 20.1399 61.4586L42.1599 39.4386L20.1399 18.5586Z" fill="#4285F4"/>
<path d="M41.5999 39.9993L52.6199 28.9793L28.6799 15.0993C27.8199 14.5793 26.7999 14.2793 25.6999 14.2793C23.0399 14.2793 20.7999 16.0993 20.1399 18.5393L41.5999 39.9793V39.9993Z" fill="#34A853"/>
</svg>
