<svg width="236" height="44" viewBox="0 0 236 44" fill="none" xmlns="http://www.w3.org/2000/svg">
<g clip-path="url(#clip0_153_9229)">
<path d="M225.404 0H9.40009C9.06202 0 8.72394 0.00815117 8.37763 0.0163023C7.62727 0.0163023 6.88515 0.0896628 6.14304 0.21193C5.40917 0.334198 4.6918 0.570582 4.0239 0.90478C3.356 1.23898 2.75406 1.67914 2.21809 2.20082C1.69037 2.72249 1.2451 3.32568 0.907026 3.98592C0.568953 4.64617 0.338073 5.35532 0.214388 6.08077C0.0907026 6.80622 0.0247371 7.54798 0.0164914 8.28159C0.0164914 8.61578 0.0164914 8.95813 0 9.29233V34.724C0 35.0663 0 35.4005 0.0164914 35.7347C0.0164914 36.4765 0.0907026 37.2101 0.214388 37.9355C0.338073 38.661 0.568953 39.3701 0.907026 40.0304C1.2451 40.6906 1.69037 41.2857 2.21809 41.8073C2.74582 42.329 3.356 42.7692 4.0239 43.1034C4.6918 43.4376 5.40093 43.674 6.14304 43.7962C6.87691 43.9185 7.62727 43.9837 8.37763 43.9919C8.72394 43.9919 9.06202 43.9919 9.40009 43.9919H226.6C226.938 43.9919 227.284 43.9919 227.622 43.9919C228.364 43.9919 229.115 43.9185 229.849 43.7962C230.591 43.674 231.3 43.4376 231.976 43.1034C232.644 42.7692 233.254 42.329 233.774 41.8073C234.301 41.2857 234.747 40.6906 235.093 40.0304C235.431 39.3701 235.662 38.661 235.786 37.9355C235.909 37.2101 235.975 36.4683 235.992 35.7347V34.724C236 34.3246 236 33.9252 236 33.5176V10.4906C236 10.0911 236 9.69174 235.992 9.29233V8.28159C235.975 7.53983 235.909 6.80622 235.786 6.08077C235.662 5.35532 235.431 4.64617 235.093 3.98592C234.409 2.66543 233.32 1.58133 231.976 0.90478C231.308 0.570582 230.591 0.342349 229.849 0.21193C229.115 0.0896628 228.364 0.0244535 227.622 0.0163023C227.284 0.0163023 226.938 0.0163023 226.6 0H225.396L225.404 0Z" fill="white"/>
<path d="M9.58974 42.7613C9.25166 42.7613 8.93008 42.7613 8.60025 42.7613C7.91586 42.7613 7.22322 42.6961 6.54707 42.5819C5.91216 42.476 5.30197 42.2722 4.72478 41.9869C4.15582 41.7016 3.63634 41.3267 3.19108 40.8865C2.73756 40.4463 2.35826 39.9328 2.06966 39.3704C1.78106 38.8079 1.57492 38.1966 1.47597 37.569C1.36053 36.8924 1.30281 36.2159 1.29457 35.5312C1.29457 35.3029 1.27808 34.5367 1.27808 34.5367V9.4719C1.27808 9.4719 1.27808 8.72199 1.29457 8.50191C1.29457 7.81721 1.36053 7.14066 1.47597 6.47227C1.58317 5.84463 1.78106 5.23329 2.06966 4.67086C2.35826 4.10843 2.72932 3.59491 3.18283 3.15474C3.63634 2.70643 4.15582 2.33147 4.72478 2.04618C5.29373 1.76089 5.91216 1.56527 6.53883 1.4593C7.22322 1.34518 7.90761 1.28813 8.60025 1.27997L9.58974 1.26367H226.419L227.424 1.27997C228.109 1.27997 228.793 1.34518 229.461 1.4593C230.096 1.56527 230.715 1.76904 231.292 2.05434C232.43 2.63307 233.361 3.55415 233.939 4.67901C234.227 5.24144 234.425 5.84463 234.524 6.46412C234.639 7.14066 234.705 7.82536 234.714 8.51006V9.4719C234.722 9.87945 234.722 10.2626 234.722 10.6538V33.363C234.722 33.7542 234.722 34.1455 234.714 34.5286V35.5393C234.697 36.2159 234.639 36.8843 234.524 37.5527C234.425 38.1803 234.219 38.7916 233.93 39.3622C233.642 39.9165 233.262 40.4219 232.817 40.862C232.372 41.3104 231.852 41.6853 231.283 41.9706C230.706 42.2559 230.088 42.4597 229.453 42.5656C228.777 42.6716 228.092 42.7368 227.4 42.745C227.078 42.745 226.74 42.745 226.419 42.745H9.58149H9.58974V42.7613Z" fill="black"/>
<path d="M17.0768 23.0923V28.5292H14.5454V14.4847H20.2267C23.393 14.4847 25.372 15.9519 25.372 18.7885C25.372 21.6251 23.393 23.0923 20.2267 23.0923H17.0768ZM17.0768 20.9404H20.0865C21.9088 20.9404 22.8736 20.1579 22.8736 18.7885C22.8736 17.4191 21.9006 16.6366 20.0865 16.6366H17.0768V20.9404ZM35.7039 23.4021C35.7039 26.5892 33.6259 28.7411 30.6987 28.7411C27.7715 28.7411 25.6936 26.5892 25.6936 23.4021C25.6936 20.215 27.7715 18.0631 30.6987 18.0631C33.6259 18.0631 35.7039 20.215 35.7039 23.4021ZM28.0848 23.4021C28.0848 25.4969 29.0908 26.7685 30.6987 26.7685C32.3066 26.7685 33.3126 25.4969 33.3126 23.4021C33.3126 21.3072 32.3066 20.0357 30.6987 20.0357C29.0908 20.0357 28.0848 21.3072 28.0848 23.4021ZM42.2097 18.2587H44.1722L46.0357 25.0649L47.8745 18.2587H50.2328L47.1077 28.5292H45.0462L43.1497 21.7963L41.2532 28.5292H39.1918L36.0667 18.2587H38.4992L40.3792 25.0649L42.218 18.2587H42.2097ZM55.609 28.7411C52.6405 28.7411 50.5626 26.5729 50.5626 23.4021C50.5626 20.2313 52.624 18.0631 55.51 18.0631C58.396 18.0631 60.1194 20.3128 60.1194 23.1331V23.9156H52.8384C53.0198 25.6763 54.0835 26.7522 55.609 26.7522C56.7799 26.7522 57.7034 26.1653 58.025 25.1057L60.0616 25.8719C59.3278 27.6733 57.6869 28.7493 55.609 28.7493V28.7411ZM55.4935 20.0357C54.2649 20.0357 53.3167 20.7611 52.9621 22.1468H57.7281C57.7116 21.0138 56.9942 20.0357 55.4935 20.0357ZM67.7054 18.2343V20.5818C67.4086 20.541 67.1694 20.5247 66.8314 20.5247C65.3306 20.5247 64.1762 21.4866 64.1762 23.125V28.521H61.8015V18.2506H64.1762V19.7748C64.6298 18.813 65.7017 18.1935 67.0293 18.1935C67.3096 18.1935 67.524 18.2098 67.7054 18.2343ZM73.1393 28.7411C70.1709 28.7411 68.0929 26.5729 68.0929 23.4021C68.0929 20.2313 70.1544 18.0631 73.0404 18.0631C75.9264 18.0631 77.6497 20.3128 77.6497 23.1331V23.9156H70.3688C70.5502 25.6763 71.6139 26.7522 73.1393 26.7522C74.3102 26.7522 75.2337 26.1653 75.5553 25.1057L77.592 25.8719C76.8581 27.6733 75.2172 28.7493 73.1393 28.7493V28.7411ZM73.0239 20.0357C71.7953 20.0357 70.847 20.7611 70.4924 22.1468H75.2585C75.242 21.0138 74.5246 20.0357 73.0239 20.0357ZM83.2568 28.7411C80.346 28.7411 78.6887 26.3121 78.6887 23.4021C78.6887 20.4921 80.3543 18.0631 83.2568 18.0631C84.6008 18.0631 85.5903 18.5929 86.2417 19.351V14.4766H88.6165V28.521H86.2417V27.4451C85.5903 28.2113 84.6008 28.733 83.2568 28.733V28.7411ZM86.3077 23.1086C86.3077 21.1687 85.2028 20.1172 83.735 20.1172C82.0117 20.1172 81.0799 21.4458 81.0799 23.4021C81.0799 25.3584 82.0117 26.687 83.735 26.687C85.2028 26.687 86.3077 25.6111 86.3077 23.7118V23.1086ZM100.647 28.7411C99.3029 28.7411 98.3134 28.2113 97.662 27.4532V28.5292H95.2872V14.4847H97.662V19.3591C98.3134 18.5929 99.3029 18.0712 100.647 18.0712C103.558 18.0712 105.215 20.5003 105.215 23.4102C105.215 26.3202 103.549 28.7493 100.647 28.7493V28.7411ZM97.596 23.1086V23.7118C97.596 25.6111 98.701 26.687 100.169 26.687C101.892 26.687 102.824 25.3584 102.824 23.4021C102.824 21.4458 101.892 20.1172 100.169 20.1172C98.701 20.1172 97.596 21.1768 97.596 23.1086ZM111.267 29.4829C110.674 31.0479 109.767 32.1238 107.606 32.1238C107.112 32.1238 106.971 32.1075 106.633 32.0668V30.0942C106.947 30.135 107.128 30.1513 107.425 30.1513C108.216 30.1513 108.596 29.9393 108.926 29.1161L109.321 28.1542L105.545 18.2587H108.035L110.591 25.4562L113.081 18.2587H115.539L111.267 29.491V29.4829Z" fill="white"/>
<path d="M152.306 14.3945H154.871V26.4012H161.649V28.6183H152.306V14.3945Z" fill="white"/>
<path d="M162.646 25.7325C162.646 23.7518 164.147 22.8796 166.175 22.4639L169.078 21.8688V21.6895C169.078 20.6951 168.558 20.0837 167.272 20.0837C166.126 20.0837 165.532 20.5973 165.244 21.608L162.976 21.0945C163.496 19.3746 165.038 18.0215 167.363 18.0215C169.886 18.0215 171.411 19.2116 171.411 21.608V26.083C171.411 26.678 171.675 26.8573 172.335 26.7758V28.618C170.595 28.8136 169.672 28.4794 169.309 27.6236C168.649 28.3572 167.544 28.7892 166.184 28.7892C164.18 28.7892 162.638 27.5828 162.638 25.7162L162.646 25.7325ZM169.078 23.6947L166.81 24.1675C165.788 24.3875 165.029 24.7054 165.029 25.6347C165.029 26.4498 165.631 26.9063 166.555 26.9063C167.841 26.9063 169.078 26.2297 169.078 24.9663V23.6947Z" fill="white"/>
<path d="M176.458 27.5339V28.6261H174.05V14.4023H176.458V19.3338C177.117 18.5594 178.123 18.0296 179.484 18.0296C182.428 18.0296 184.11 20.4831 184.11 23.442C184.11 26.4009 182.428 28.8544 179.484 28.8544C178.123 28.8544 177.117 28.3164 176.458 27.5502V27.5339ZM176.4 23.7517C176.4 25.6754 177.521 26.7595 179.006 26.7595C180.746 26.7595 181.694 25.4146 181.694 23.4338C181.694 21.4531 180.754 20.1082 179.006 20.1082C177.521 20.1082 176.4 21.176 176.4 23.1404V23.7517Z" fill="white"/>
<path d="M185.314 23.4339C185.314 20.3853 187.4 18.0215 190.327 18.0215C193.254 18.0215 194.994 20.3038 194.994 23.1567V23.9474H187.614C187.796 25.7325 188.876 26.8166 190.418 26.8166C191.597 26.8166 192.545 26.2216 192.867 25.1538L194.928 25.9281C194.186 27.754 192.52 28.8381 190.418 28.8381C187.408 28.8381 185.305 26.6373 185.305 23.4257L185.314 23.4339ZM187.738 22.1623H192.57C192.553 21.013 191.828 20.0267 190.302 20.0267C189.057 20.0267 188.101 20.7603 187.738 22.1623Z" fill="white"/>
<path d="M199.199 28.6261H196.792V14.4023H199.199V28.6261Z" fill="white"/>
<path d="M213.151 14.3945L218.602 28.6183H216.012L214.767 25.366H208.55L207.33 28.6183H204.782L210.232 14.3945H213.135H213.151ZM209.399 23.1489H213.926L211.642 17.2067L209.399 23.1489Z" fill="white"/>
<path d="M222.733 28.6261H220.168V14.4023H222.733V28.6261Z" fill="white"/>
<path d="M133.869 35.0903C141.173 35.0903 147.095 29.2367 147.095 22.0159C147.095 14.795 141.173 8.94141 133.869 8.94141C126.564 8.94141 120.643 14.795 120.643 22.0159C120.643 29.2367 126.564 35.0903 133.869 35.0903Z" fill="white"/>
<path opacity="0.95" d="M130.166 30.6973C127.099 29.0344 125.013 25.8147 125.013 22.1141C125.013 18.4135 127.091 15.1937 130.158 13.5391C128.155 15.8458 126.934 18.8373 126.934 22.1141C126.934 25.3909 128.155 28.3986 130.158 30.6973H130.166Z" fill="black"/>
<path opacity="0.8" d="M141.735 24.5107C142.273 24.5107 142.708 23.3903 142.708 22.0083C142.708 20.6262 142.273 19.5059 141.735 19.5059C141.198 19.5059 140.762 20.6262 140.762 22.0083C140.762 23.3903 141.198 24.5107 141.735 24.5107Z" fill="black"/>
<g opacity="0.85">
<path d="M137.464 13.5215C136.788 13.5215 136.161 14.1573 135.658 15.2169C135.567 15.4126 135.477 15.6245 135.394 15.8527C134.817 17.4014 134.454 19.586 134.454 22.015C134.454 24.444 134.817 26.6286 135.394 28.1773C135.477 28.3974 135.567 28.6093 135.658 28.8049C136.161 29.8727 136.788 30.5085 137.464 30.5085C139.13 30.5085 140.474 26.7101 140.474 22.015C140.474 17.3199 139.13 13.5215 137.464 13.5215ZM138.313 26.9383C137.348 26.9383 136.565 24.7293 136.565 22.015C136.565 19.3007 137.348 17.0917 138.313 17.0917C139.278 17.0917 140.061 19.3007 140.061 22.015C140.061 24.7293 139.278 26.9383 138.313 26.9383Z" fill="black"/>
</g>
<path opacity="0.9" d="M135.163 28.4959C135.271 28.7567 135.386 29.0094 135.51 29.2295C134.949 30.7864 134.19 31.7319 133.366 31.7319C131.601 31.7319 130.167 27.3792 130.167 22.0075C130.167 16.6359 131.601 12.2832 133.366 12.2832C134.19 12.2832 134.941 13.2287 135.51 14.7856C135.386 15.0057 135.271 15.2584 135.163 15.5192C134.924 15.2258 134.669 15.0709 134.388 15.0709C133.184 15.0709 132.211 18.1765 132.211 22.0075C132.211 25.8386 133.184 28.9442 134.388 28.9442C134.66 28.9442 134.924 28.7812 135.163 28.4959Z" fill="black"/>
</g>
<defs>
<clipPath id="clip0_153_9229">
<rect width="236" height="44" fill="white"/>
</clipPath>
</defs>
</svg>
