<svg width="307" height="54" viewBox="0 0 307 54" fill="none" xmlns="http://www.w3.org/2000/svg">
<rect x="1" y="1" width="305" height="52" rx="9" fill="black" stroke="white" stroke-width="2"/>
<g clip-path="url(#clip0_153_6644)">
<path d="M182.31 18.264V35.6642H193.256V32.6405H185.673V28.1771H192.737V25.2242H185.673V21.2401L192.986 21.2409V18.264H182.31ZM194.538 35.6642H197.833V18.1921H194.538V35.6638V35.6642ZM209.48 29.1328C209.48 25.6763 208.013 23.256 204.38 23.256C200.746 23.256 198.85 25.5597 198.85 29.5438C198.85 33.7682 200.296 35.9525 204.537 35.9525C206.545 35.9525 208.396 35.3047 209.277 34.6817L208.667 32.4005C207.697 32.928 206.275 33.3132 205.125 33.3132C203.974 33.3132 203.116 32.9534 202.754 32.5446C202.325 32.0417 202.123 31.2252 202.123 30.3843H209.48V29.1332L209.48 29.1328ZM206.252 28.1528H202.123C202.169 26.4735 202.934 25.6566 204.289 25.6566C205.781 25.6566 206.252 26.6885 206.252 28.1528ZM220.352 24.863C219.562 23.9981 218.028 23.3264 216.312 23.3264C212.317 23.3264 210.423 25.2464 210.423 29.6858C210.423 34.1251 211.935 35.9975 216.2 35.9975C217.96 35.9975 219.472 35.5422 220.308 34.9907L219.631 32.5893C218.795 33.0221 217.735 33.3333 216.494 33.3333C214.734 33.3333 213.605 32.3021 213.605 29.7333C213.605 26.9507 214.576 25.9177 216.335 25.9177C217.306 25.9177 218.14 26.3498 218.682 26.8781L220.352 24.8626V24.863ZM230.113 23.5675H226.299V20.6654L223.072 21.2319V23.5675H221.108V26.2815H223.072V31.6089C223.072 34.8008 223.997 35.9528 226.614 35.9528C228.081 35.9528 229.48 35.617 230.563 34.9932L230.09 32.4963C229.391 32.8812 228.465 33.0968 227.81 33.0968C226.704 33.0968 226.298 32.712 226.298 31.1776V26.3047H230.113V23.5675H230.113ZM231.733 23.5675V35.6645H235.005V27.3366C235.569 26.5694 236.606 26.0894 237.667 26.0894C238.255 26.0894 238.909 26.2568 239.27 26.4732L240.015 23.6644C239.518 23.3772 238.684 23.2563 237.917 23.2563C236.811 23.2563 235.44 23.7846 234.74 24.7696L234.741 23.5675H231.733H231.733ZM245.649 23.2563C241.496 23.2563 239.734 25.3444 239.734 29.5681C239.734 33.5289 241 35.9528 245.174 35.9528C249.348 35.9528 251.108 33.9127 251.108 29.689C251.108 25.4653 249.846 23.2563 245.648 23.2563M247.791 29.4733C247.791 32.2574 247.295 33.4331 245.242 33.4331C243.526 33.4331 243.053 32.0167 243.053 29.5935C243.053 26.857 243.593 25.7765 245.58 25.7765C247.409 25.7765 247.791 27.2175 247.791 29.4733M252.284 23.5679V35.6649H255.556V26.7615C255.964 26.4489 256.776 26.137 257.454 26.137C259.055 26.137 259.394 26.8094 259.394 28.1524V35.6649H262.665V27.3144C262.665 24.8894 261.853 23.2817 259.122 23.2817C257.859 23.2817 256.523 23.6169 255.351 24.3869V23.5679H252.284ZM264.265 20.9522H267.582V18.1445H264.265V20.9512V20.9522ZM264.289 35.6649H267.561V23.5675H264.289V35.6638V35.6649ZM278.597 24.8168C277.806 23.9534 276.272 23.2817 274.556 23.2817C270.563 23.2817 268.667 25.201 268.667 29.6403C268.667 34.0797 270.18 35.9528 274.444 35.9528C276.203 35.9528 277.717 35.4968 278.551 34.9446L277.874 32.5446C277.039 32.9774 275.979 33.2886 274.737 33.2886C272.977 33.2886 271.849 32.2574 271.849 29.6886C271.849 26.9053 272.819 25.873 274.579 25.873C275.55 25.873 276.384 26.3044 276.926 26.8326L278.597 24.8165L278.597 24.8168ZM288.91 24.3376C287.576 23.6891 286.292 23.2817 284.442 23.2817C281.259 23.2817 279.567 24.7206 279.567 26.9539C279.567 29.1872 280.943 30.2652 282.704 30.6965L283.99 31.0091C285.14 31.2735 285.863 31.6816 285.863 32.2806C285.863 33.0253 285.14 33.4094 284.104 33.4094C282.794 33.4094 281.259 32.9527 280.312 32.3776L279.476 34.873C280.627 35.5222 282.071 36.0015 284.08 36.0015C287.127 36.0015 289 34.7292 289 32.0643C289 30.2888 287.962 29.2816 286.586 28.8495C286.202 28.7294 285.502 28.513 285.006 28.3942C283.809 28.1295 282.613 27.8638 282.613 26.9056C282.613 26.1856 283.335 25.8011 284.509 25.8011C285.818 25.8011 287.081 26.1617 287.983 26.6892L288.91 24.3379V24.3376Z" fill="white"/>
<path d="M154.686 35.7054H161.641V32.3082H153.789V18.2598H150V35.7054H154.686Z" fill="white"/>
<path d="M169.978 29.0562H173.065V32.1061C172.496 32.3375 171.386 32.5675 170.33 32.5675C166.919 32.5675 165.781 30.7244 165.781 26.9821C165.781 23.2398 166.864 21.3113 170.274 21.3113C172.171 21.3113 173.254 21.9433 174.146 23.1529L176.503 20.8506C175.067 18.6628 172.55 18 170.194 18C164.889 18 162.1 21.0799 162.1 26.9524C162.1 32.825 164.617 35.9642 170.167 35.9642C172.711 35.9642 175.202 35.2736 176.557 34.2653V25.8022H169.978V29.0559L169.978 29.0562Z" fill="white"/>
</g>
<path d="M16.4883 19.0898H23.0625C26.4258 19.0898 28.7578 21.375 28.7578 24.75C28.7578 28.125 26.3555 30.4102 22.9336 30.4102H19.5117V36H16.4883V19.0898ZM19.5117 21.5625V27.9727H22.2539C24.4219 27.9727 25.6875 26.8008 25.6875 24.75C25.6875 22.7227 24.4336 21.5625 22.2656 21.5625H19.5117ZM35.707 36.2461C32.0625 36.2461 29.6953 33.8203 29.6953 29.7891C29.6953 25.7812 32.0859 23.3203 35.707 23.3203C39.3281 23.3203 41.7188 25.7695 41.7188 29.7891C41.7188 33.8203 39.3516 36.2461 35.707 36.2461ZM35.707 33.9375C37.5586 33.9375 38.7539 32.4375 38.7539 29.7891C38.7539 27.1523 37.5586 25.6406 35.707 25.6406C33.8672 25.6406 32.6602 27.1523 32.6602 29.7891C32.6602 32.4375 33.8555 33.9375 35.707 33.9375ZM60.375 23.5781L57.0117 36H53.9414L51.4922 26.918H51.4336L48.9961 36H45.9492L42.5859 23.5781H45.5156L47.6133 33.1172H47.6719L50.0977 23.5781H52.8984L55.3242 33.1172H55.3945L57.4922 23.5781H60.375ZM67.0664 25.582C65.4258 25.582 64.2422 26.8359 64.125 28.5703H69.9258C69.8672 26.8125 68.7422 25.582 67.0664 25.582ZM69.9375 32.2852H72.668C72.293 34.6289 70.1133 36.2461 67.1719 36.2461C63.4453 36.2461 61.1953 33.7969 61.1953 29.8359C61.1953 25.9102 63.4688 23.3203 67.0547 23.3203C70.582 23.3203 72.7852 25.7695 72.7852 29.543V30.4922H64.1016V30.668C64.1016 32.6602 65.3203 33.9961 67.2305 33.9961C68.5898 33.9961 69.6211 33.3164 69.9375 32.2852ZM74.6719 36V23.5781H77.4727V25.7461H77.5312C77.9531 24.2344 79.043 23.3672 80.5078 23.3672C80.8828 23.3672 81.2109 23.4375 81.4219 23.4844V26.1211C81.1758 26.0273 80.7305 25.957 80.2383 25.957C78.5859 25.957 77.5898 27.0234 77.5898 28.7695V36H74.6719ZM87.8086 25.582C86.168 25.582 84.9844 26.8359 84.8672 28.5703H90.668C90.6094 26.8125 89.4844 25.582 87.8086 25.582ZM90.6797 32.2852H93.4102C93.0352 34.6289 90.8555 36.2461 87.9141 36.2461C84.1875 36.2461 81.9375 33.7969 81.9375 29.8359C81.9375 25.9102 84.2109 23.3203 87.7969 23.3203C91.3242 23.3203 93.5273 25.7695 93.5273 29.543V30.4922H84.8438V30.668C84.8438 32.6602 86.0625 33.9961 87.9727 33.9961C89.332 33.9961 90.3633 33.3164 90.6797 32.2852ZM100.055 36.1992C96.9258 36.1992 94.8984 33.7266 94.8984 29.7773C94.8984 25.8516 96.9258 23.3672 100.055 23.3672C101.836 23.3672 103.242 24.293 103.898 25.6641H103.969V19.0898H106.887V36H104.027V33.8789H103.98C103.301 35.2734 101.871 36.1992 100.055 36.1992ZM100.934 25.7695C99.0586 25.7695 97.8867 27.3281 97.8867 29.7891C97.8867 32.2617 99.0469 33.8086 100.934 33.8086C102.773 33.8086 103.98 32.25 103.98 29.7891C103.98 27.3516 102.773 25.7695 100.934 25.7695ZM121.09 36.1992C119.262 36.1992 117.867 35.3203 117.141 33.8789H117.082V36H114.223V19.0898H117.141V25.7109H117.211C117.914 24.2578 119.332 23.3672 121.09 23.3672C124.219 23.3672 126.211 25.8164 126.211 29.7891C126.211 33.7617 124.23 36.1992 121.09 36.1992ZM120.188 25.7695C118.383 25.7695 117.129 27.375 117.129 29.7891C117.129 32.2266 118.383 33.8086 120.188 33.8086C122.062 33.8086 123.223 32.2617 123.223 29.7891C123.223 27.3281 122.051 25.7695 120.188 25.7695ZM129.164 40.6172C129 40.6172 128.168 40.6055 128.016 40.5703V38.2617C128.168 38.2969 128.684 38.3086 128.859 38.3086C130.066 38.3086 130.688 37.8516 131.016 36.7031C131.016 36.668 131.191 36.0469 131.18 36.0117L126.762 23.5781H129.949L132.879 33.5156H132.926L135.855 23.5781H138.926L134.438 36.4922C133.371 39.5742 132 40.6172 129.164 40.6172Z" fill="white"/>
<defs>
<clipPath id="clip0_153_6644">
<rect width="139" height="18" fill="white" transform="translate(150 18)"/>
</clipPath>
</defs>
</svg>
