<svg width="418" height="78" viewBox="0 0 418 78" fill="none" xmlns="http://www.w3.org/2000/svg">
<g clip-path="url(#clip0_153_6909)">
<path d="M46.6792 3.72339C57.228 -1.63553 70.5753 -1.16481 80.7713 4.81569C88.0351 9.28145 94.0699 16.0887 96.7832 24.2116C99.4356 31.6525 99.4295 39.9806 96.771 47.4215C93.1513 58.6463 83.3994 67.5054 71.9319 70.4504C71.8042 72.5324 71.8772 74.6808 71.135 76.6722C67.2476 79.0379 62.4842 77.4809 58.2257 77.6258C53.3711 78.0663 48.4738 78.1327 43.6191 77.662C38.6428 77.3119 33.6239 77.8973 28.6597 77.3602C13.8159 74.4756 1.61231 61.3378 0.12184 46.3714C-0.0363315 43.3782 -0.0728328 40.3668 0.188759 37.3796C1.42372 27.6997 6.95974 18.6958 15.0022 13.0955C22.0834 8.03828 31.1236 5.41917 39.823 6.62613C42.4754 6.95805 44.4343 4.72517 46.6792 3.72339ZM14.6858 18.8828C8.02436 24.8754 3.98489 33.819 4.31948 42.7747C4.24648 50.9096 7.83577 58.942 13.7368 64.5543C19.7169 70.6616 28.3677 73.9988 36.9151 73.7876C47.0016 73.7514 57.0881 73.7755 67.1746 73.7635C67.1442 72.985 67.1199 72.2065 67.0955 71.422C57.8485 71.6694 48.6016 71.4823 39.3607 71.5366C36.1121 71.4823 32.8574 71.6875 29.6209 71.428C27.9419 71.3857 26.7495 69.7322 26.8712 68.1451C26.7677 57.6686 26.8833 47.1861 26.8225 36.7097C26.6704 31.3387 27.7411 25.9194 30.0407 21.0493C31.7806 17.1991 34.3783 13.8377 36.9394 10.5005C28.8666 10.5789 20.6051 13.3006 14.6858 18.8828ZM57.1003 23.2098C55.184 23.4271 53.8577 25.147 53.8212 27.0117C53.584 31.8517 53.8395 36.6976 53.7239 41.5436C53.7908 44.036 53.3771 46.6611 54.4114 49.0207C54.9406 50.7346 57.1003 50.4932 58.5117 50.2699C60.0934 49.7268 60.4949 47.8681 60.428 46.3835C60.3854 39.7573 60.4706 33.125 60.3915 26.4988C60.6044 24.6582 58.8097 23.2641 57.1003 23.2098ZM68.1236 28.0618C66.767 28.2851 65.1975 29.2205 65.2096 30.7533C64.9967 33.7526 65.1731 36.758 65.1062 39.7633C65.1549 41.6039 64.8811 43.6739 66.1039 45.2309C67.7343 45.7378 70.3989 46.1602 71.2019 44.211C72.1144 41.8272 71.7129 39.2141 71.8103 36.7278C71.7312 34.4225 72.1023 32.0025 71.2384 29.7998C70.6057 28.7558 69.389 27.929 68.1236 28.0618ZM44.337 28.6774C41.6724 30.4697 43.0047 34.0544 42.6823 36.7218C42.9986 39.5521 41.6481 43.2997 44.3553 45.2912C46.6548 46.4258 49.1673 44.5006 49.2708 42.0988C49.3985 38.3632 49.5871 34.5734 49.1552 30.862C48.7962 28.5808 46.2655 27.9471 44.337 28.6774ZM78.49 31.8275C77.1395 32.5336 76.0748 33.9035 76.1722 35.4846C76.0992 37.6149 75.868 40.2401 77.7843 41.7126C79.6824 42.3885 82.2618 41.9298 82.7181 39.6728C82.8032 37.2589 83.6428 34.0544 81.3858 32.3646C80.601 31.7491 79.433 31.3085 78.49 31.8275Z" fill="#FEFEFB"/>
<path d="M362.579 13.7595C364.806 13.0836 367.379 13.3068 369.313 14.6768C372.799 16.7407 372.994 22.4013 369.812 24.8152C366.26 27.7663 359.75 26.5291 358.235 21.9427C356.836 18.5994 359.33 14.8337 362.579 13.7595Z" fill="#FEFEFB"/>
<path d="M160.247 15.7753C162.613 15.4675 164.998 15.4011 167.376 15.377C167.456 31.852 167.437 48.3331 167.407 64.8081C165.016 64.7297 162.625 64.7176 160.234 64.615C160.32 48.3391 160.295 32.0572 160.247 15.7753Z" fill="#FEFEFB"/>
<path d="M119.791 17.3863C123.94 15.5034 128.594 15.6483 133.041 15.8595C138.839 16.2819 144.168 19.0036 148.749 22.4133C147.471 23.916 146.157 25.3824 144.819 26.8247C141.15 24.0729 136.91 21.8883 132.262 21.4719C128.29 21.152 123.843 21.1701 120.582 23.7953C118.441 25.4307 117.26 28.8766 119.347 31.031C121.939 33.6199 125.808 34.1269 129.257 34.8088C135.754 35.9856 142.848 36.6796 148.122 41.0307C152.228 44.3317 153.445 50.4631 151.133 55.1341C149.351 58.9541 145.731 61.6034 141.85 63.0759C131.106 67.1252 118.611 63.3173 110.435 55.7375C111.603 54.422 112.667 52.9314 114.188 51.9779C115.393 51.9235 116.287 52.9676 117.266 53.5288C121.774 56.9083 127.353 59.1291 133.078 58.7972C137.664 58.9843 142.738 57.029 144.892 52.7926C146.413 49.751 145.074 45.7801 141.978 44.3136C134.033 40.21 124.317 41.4471 116.549 36.8546C113.501 35.1286 111.317 31.8397 111.475 28.2912C111.706 23.3909 115.356 19.2269 119.791 17.3863Z" fill="#FEFEFB"/>
<path d="M239.795 16.0824C240.598 14.7185 242.149 15.5996 243.232 16.0884C245.878 17.8627 247.722 20.524 249.924 22.775C254.487 27.5003 259.256 32.0324 263.618 36.9387C268.886 42.2675 274.143 47.6083 279.265 53.0698C279.575 40.6562 279.307 28.2365 279.387 15.8169C281.613 15.8169 283.846 15.8169 286.078 15.7927C286.145 31.966 286.048 48.1454 286.145 64.3247C284.637 65.3325 282.635 64.5299 281.485 63.3411C274.599 56.6605 268.229 49.4851 261.416 42.7322C256.61 37.3732 251.244 32.5393 246.572 27.0718C246.219 39.6182 246.529 52.1766 246.402 64.723C244.187 64.7351 241.967 64.7472 239.752 64.7834C239.582 51.4042 239.728 38.031 239.685 24.6518C239.74 21.7974 239.497 18.9248 239.795 16.0824Z" fill="#FEFEFB"/>
<path d="M381.499 15.793C383.731 15.8292 385.958 15.8231 388.197 15.8231C388.215 30.1317 388.221 44.4463 388.197 58.7548C397.991 58.8574 407.786 58.8091 417.58 58.785C417.775 60.7584 417.939 62.7378 418.006 64.7233C405.839 64.8138 393.672 64.6931 381.511 64.7655C381.438 48.4413 381.426 32.1171 381.511 15.793H381.499Z" fill="#FEFEFB"/>
<path d="M178.801 28.526C182.914 21.4472 190.798 16.9573 198.859 15.9495C203.391 15.6839 208.063 15.4546 212.456 16.8245C216.075 17.8022 219.366 19.6549 222.506 21.6524C221.374 23.2757 220.486 25.2371 218.673 26.2388C216.16 25.2612 214.025 23.5111 211.446 22.6602C201.749 19.0574 188.991 22.6481 184.429 32.3461C180.675 39.5577 182.926 49.0022 189.259 54.0412C197.995 61.1804 212.571 60.4502 220.078 51.8506C222.816 48.7849 224.203 44.7356 224.221 40.6681C217.061 40.7345 209.9 40.7284 202.746 40.65C202.758 38.8275 202.758 36.9989 202.746 35.1764C212.091 35.0798 221.435 35.1523 230.779 35.1462C232.111 41.6638 230.597 48.6823 226.557 53.999C221.94 60.3356 214.189 63.709 206.542 64.6504C197.758 65.2781 188.395 62.5805 182.226 56.1233C175.048 49.0384 173.746 37.1498 178.801 28.526Z" fill="#FEFEFB"/>
<path d="M297.698 56.226C303.727 42.7321 309.555 29.1477 315.839 15.7686C320.262 15.853 324.685 15.7927 329.107 15.8108C335.897 32.0746 343.392 48.0428 350.229 64.2885C345.819 65.0066 341.317 64.8316 336.876 64.6566C334.516 62.9065 334.187 59.5572 332.867 57.0527C326.662 57.0829 320.463 57.0467 314.257 57.0407C313.181 57.0769 311.721 56.9924 311.204 58.1631C310.102 60.2572 309.47 62.5505 308.63 64.7471C303.824 64.7471 299.024 64.7713 294.224 64.717C295.137 61.7901 296.421 59.008 297.698 56.226ZM322.038 31.441C319.915 36.3895 317.798 41.3682 316.229 46.522C320.256 46.5522 324.289 46.528 328.317 46.522C327.258 42.1407 325.244 38.0732 323.73 33.8368C323.292 32.9859 323.115 31.7306 322.038 31.447V31.441Z" fill="#FEFEFB"/>
<path d="M357.937 30.4154C362.555 30.3973 367.172 30.4033 371.789 30.4094C371.881 41.8574 371.832 53.3054 371.808 64.7535C367.318 64.7897 362.822 64.6569 358.333 64.8259C358.168 63.106 357.98 61.3921 357.974 59.6722C357.962 49.9199 358.035 40.1677 357.937 30.4154Z" fill="#FEFEFB"/>
</g>
<defs>
<clipPath id="clip0_153_6909">
<rect width="418" height="78" fill="white"/>
</clipPath>
</defs>
</svg>
