<svg width="430" height="68" viewBox="0 0 430 68" fill="none" xmlns="http://www.w3.org/2000/svg">
<g clip-path="url(#clip0_153_6104)">
<path d="M173.779 40.4387L181.093 19.054L188.407 40.4387H173.779ZM99.4693 27.6195V15.2665H115.209C118.251 15.2665 119.597 18.7044 119.539 21.5596C119.48 24.2399 118.251 27.6195 115.267 27.6195H99.5278M195.838 0H166.523L149.204 50.5193H130.773L123.693 42.653C128.023 42.2451 132.353 41.0214 135.629 38.2245C140.252 34.3205 142.3 27.2699 142.534 21.443C142.768 15.0334 139.901 8.56555 135.103 4.31191C131.065 0.699229 126.15 0.0582691 120.826 0.0582691H0V17.539H35.5164V68.0583H55.5858V17.4807H79.4584V68H99.5278V45.7412L119.597 68H164.417L168.63 55.647H193.614L197.827 68H219.008L195.838 0Z" fill="white"/>
<path d="M283.136 0H254.407C249.024 0 243.992 0.699229 239.253 2.03942C234.513 3.37961 230.301 5.47729 226.673 8.27421C222.987 11.0711 220.178 14.509 218.072 18.7044C216.024 22.8997 214.971 27.6778 214.971 32.9803C214.971 40.5553 216.726 47.0231 220.12 52.2091C223.572 57.4533 228.311 61.3573 234.279 63.9794C240.248 66.6015 246.976 67.8835 254.349 67.8835H283.078V47.8972H261.429C260.141 47.8972 258.796 47.8972 257.508 47.8972C253.705 47.8972 249.843 47.7224 246.333 46.557C240.248 44.5176 238.2 39.5647 237.966 33.563C238.2 28.7266 239.253 24.5895 243.992 22.2588C248.673 19.9863 253.998 19.8115 259.205 19.8115C259.966 19.8115 260.727 19.8115 261.487 19.8115H283.136V0Z" fill="white"/>
<path d="M430 0H380.207C373.478 0 366.398 4.37018 364.584 12.4113C363.005 19.2871 366.047 31.4653 377.398 43.0026C378.803 44.401 379.797 45.8578 379.622 48.0137C379.446 49.8783 376.462 50.5193 374.765 50.5193H344.222L326.376 34.9614L358.09 0H330.999L310.812 22.2005V0H290.802V68H310.812V48.0137L333.807 68H391.5C399.516 67.8252 407.122 61.066 407.122 51.8595C407.122 43.4687 401.154 35.7189 392.904 26.3376C389.276 22.2588 388.223 17.4807 393.313 17.4807H430V0Z" fill="white"/>
</g>
<defs>
<clipPath id="clip0_153_6104">
<rect width="430" height="68" fill="white"/>
</clipPath>
</defs>
</svg>
